<svg width="781.865" height="772.919" viewBox="0 0 206.869 204.502" xml:space="preserve" xmlns="http://www.w3.org/2000/svg"><path style="fill:#fff" d="M103.658 214.09c-1.098-.126-2.013-.423-2.643-.856-.382-.264-.497-.41-.745-.946a8.041 8.041 0 0 1-.385-.982c-.051-.192-.18-.577-.285-.856-.106-.28-.254-.699-.327-.932-.074-.232-.31-.842-.525-1.354a18.46 18.46 0 0 1-.503-1.313c-.114-.385-.403-1.087-.884-2.145-.145-.319-.263-.635-.263-.702 0-.26-.433-.957-.866-1.394-1.074-1.084-2.225-1.622-4.425-2.07a106.386 106.386 0 0 1-6.012-1.39 790.82 790.82 0 0 0-2.667-.684c-1.317-.331-3.553-1.024-5.292-1.64-2.134-.754-2.1-.748-3.81-.755-1.495-.006-1.533-.002-2.032.23-.595.276-1.114.621-1.99 1.324-.349.28-.863.68-1.142.885-.28.207-.737.566-1.016.8a166.038 166.038 0 0 1-2.616 2.152c-.284.226-.708.591-.943.812-.507.48-.67.573-1.272.73-.574.15-1.046.095-2.027-.232-.841-.281-3.816-1.86-5.842-3.1a60.266 60.266 0 0 0-.89-.532c-1.925-1.125-2.785-1.849-3.34-2.81-.383-.664-.395-.865-.13-2.246.131-.685.283-1.512.337-1.838a138.661 138.661 0 0 0 .857-5.546c.124-.962.056-2.12-.161-2.728-.413-1.159-1.769-2.791-3.87-4.661-2.663-2.37-7.33-7.043-8.854-8.866-1.167-1.396-2.244-2.34-3.272-2.87-.901-.464-2.127-.595-3.664-.392a197.51 197.51 0 0 0-4.234.595c-.831.13-1.16.189-2.116.376l-.932.182c-.884.173-1.535.126-2.09-.15-.91-.456-1.503-1.13-2.664-3.033a97.86 97.86 0 0 0-.706-1.143 41.878 41.878 0 0 1-.737-1.27c-1.45-2.575-2.146-3.88-2.386-4.474-.233-.576-.262-.742-.261-1.495 0-.619.038-.915.139-1.1.076-.14.533-.693 1.017-1.228a75.667 75.667 0 0 0 3.201-3.845c.303-.391.84-1.067 1.194-1.503 1.094-1.345 1.3-1.824 1.392-3.236.087-1.318-.121-2.615-.639-3.99a56.055 56.055 0 0 1-.755-2.158l-.543-1.694c-.113-.349-.242-.787-.288-.973a92.546 92.546 0 0 0-.423-1.567c-.37-1.331-.793-3.044-.954-3.852-.056-.28-.21-.897-.342-1.372a49.081 49.081 0 0 1-.586-2.567c-.356-1.76-.544-2.319-1.118-3.339-.626-1.111-1.592-1.866-3.203-2.502a439.33 439.33 0 0 0-1.397-.548c-.513-.2-1.255-.503-1.651-.675-.708-.307-1.301-.528-2.523-.939a9.182 9.182 0 0 1-.931-.366 5.507 5.507 0 0 0-.782-.293c-.786-.227-1.324-.814-1.758-1.92-.192-.488-.267-1.42-.357-4.402-.1-3.314-.012-5.79.24-6.731.186-.699.576-1.423.964-1.791.287-.272 1.587-.835 2.607-1.13.753-.217 1.843-.616 2.201-.805.163-.086.525-.222.804-.301.28-.08.832-.287 1.228-.46.396-.174 1.15-.48 1.677-.681.527-.2 1.041-.42 1.143-.487.47-.309 1.14-1.002 1.492-1.544.505-.776.709-1.254.975-2.284a27.63 27.63 0 0 1 1.106-3.344l.734-1.863c.192-.489.46-1.117.597-1.397.136-.28.42-.927.629-1.439.424-1.039 2.733-5.728 3.05-6.195.111-.164.335-.552.497-.862.505-.964 3.11-5.135 3.604-5.77.09-.116.306-.421.48-.678.97-1.437 2.698-3.7 3.845-5.037.32-.373.856-1 1.192-1.395 2.314-2.717 7.406-7.598 10.313-9.887.252-.199.687-.544.966-.767.759-.605 1.87-1.43 2.077-1.541.1-.054.322-.223.492-.377.17-.154.486-.39.701-.522.215-.134.882-.57 1.482-.97s1.33-.876 1.624-1.058c.294-.182.83-.522 1.192-.755a28.95 28.95 0 0 1 1.184-.72c.29-.163.744-.424 1.01-.58.887-.523 4.195-2.19 5.309-2.677 2.692-1.174 3.828-1.65 5.207-2.183 2.068-.798 2.55-.972 3.429-1.241.186-.057.53-.173.762-.257.233-.085.595-.202.804-.26.21-.06.553-.163.762-.23.21-.068.724-.213 1.143-.321.42-.109 1.03-.279 1.355-.378.65-.197 2.14-.566 2.773-.686.995-.19 1.23-.238 1.587-.33.21-.054.59-.137.847-.184.256-.048.637-.123.847-.168.584-.126 1.34-.24 4.148-.63 2.007-.277 2.445-.32 5.758-.561 1.923-.14 5.653-.146 8.17-.013 2.83.15 4.252.26 4.578.357.143.043.658.104 1.143.137.486.033 1.226.13 1.645.216.42.085.953.179 1.185.207 1.787.22 3.294.521 6.181 1.234.186.046.739.178 1.228.293.489.115 1.232.305 1.65.421.42.116.798.212.84.213.043 0 .058.022.033.047-.025.024-.22.006-.433-.042-1.317-.295-6.52-.466-10.48-.344-1.649.05-3.265.128-3.59.172-.327.044-1.317.156-2.202.25-.885.093-1.8.208-2.032.257-.233.048-.646.122-.92.165-.272.043-.786.136-1.142.207-.356.07-.876.166-1.155.212-.999.165-2.97.594-3.345.728-.21.075-.61.19-.889.253-1.097.25-1.585.388-1.827.513-.14.072-.757.277-1.372.455-.615.179-1.513.482-1.995.674-.483.192-.92.35-.974.35-.117 0-1.037.374-1.949.793-.367.169-.704.307-.749.307-.045 0-.512.208-1.038.463a33.15 33.15 0 0 1-1.368.63c-.716.292-3.82 1.906-4.915 2.556-1.241.736-1.44.859-2.338 1.44-1.842 1.192-2.806 1.854-3.815 2.62-.458.346-1.032.765-1.277.929-.245.164-.727.549-1.071.855-.345.307-1.198 1.034-1.897 1.617-1.118.932-3.763 3.478-5.13 4.937-1.498 1.598-2.657 2.94-3.405 3.944-.195.262-.584.755-.863 1.096-1.121 1.37-3.683 5.17-4.402 6.53-.115.217-.25.421-.301.452-.051.032-.225.348-.387.702-.161.355-.345.703-.408.775-.144.163-1.97 3.81-2.333 4.659-.15.35-.401.905-.56 1.234-.158.33-.287.64-.287.69 0 .051-.12.353-.265.672-.146.318-.37.865-.498 1.214-.128.35-.354.959-.503 1.355-.148.395-.342.967-.43 1.27a35.37 35.37 0 0 1-.415 1.288c-.14.406-.336 1.092-.436 1.524-.1.432-.249.957-.33 1.167-.082.21-.21.667-.284 1.016-.33 1.562-.645 2.881-.719 3.022-.044.084-.163.623-.264 1.197-.101.574-.22 1.127-.265 1.228-.077.176-.157.595-.616 3.231-.459 2.64-.865 6.537-.988 9.483a322.257 322.257 0 0 1-.166 3.514c-.08 1.451.004 4.88.174 7.07.05.651.143 1.89.205 2.751.126 1.744.413 4.164.513 4.326.036.058.092.356.125.662.033.307.144.977.247 1.489.248 1.237.473 2.407.601 3.133.058.326.134.669.17.762.035.093.108.398.163.677.125.641.234 1.083.389 1.566.067.21.121.47.12.578 0 .108.1.49.22.847.216.639.418 1.34.676 2.343.072.28.239.794.371 1.143.132.35.286.826.34 1.058.055.233.17.595.255.805.341.838.689 1.782.815 2.212.074.25.203.588.288.751.085.163.316.696.514 1.185.763 1.886 1.019 2.493 1.174 2.787.089.167.355.723.59 1.235.237.512.51 1.084.61 1.27.098.186.644 1.235 1.213 2.331.57 1.096 1.13 2.144 1.247 2.328.354.563 1.446 2.373 1.805 2.992.186.32.491.802.677 1.07.187.267.472.685.635.928a97.947 97.947 0 0 0 1.93 2.765c.126.168.456.626.734 1.016.277.39.666.9.863 1.133.481.566.908 1.083 1.469 1.78 2.519 3.126 9.004 9.56 11.373 11.284.148.108.402.32.565.474.163.153.43.368.592.479.163.11.582.434.932.72.349.285.825.65 1.058.81.233.16.785.56 1.228.888.692.515 1.515 1.068 3.513 2.36.397.257 3.505 2.126 4.826 2.901.326.192.764.414.974.494.21.08.42.173.466.205.295.205 3.16 1.636 3.632 1.813.315.119.827.35 1.137.512.845.445 4.06 1.717 5.983 2.37.513.173 1.16.402 1.44.508 1.171.446 5.448 1.676 7.07 2.035.518.115.97.226 1.006.248.036.022.329.081.651.131s1.024.184 1.56.298c1.163.247 3.105.593 4.275.76.466.067 1.209.177 1.651.246 1.452.225 6.008.558 7.663.56l.846.001-.254.157c-.47.29-1.625 1.673-1.7 2.037-.052.257-.482 1.409-.729 1.954a23.8 23.8 0 0 0-.495 1.282 44.648 44.648 0 0 1-.634 1.65 43.534 43.534 0 0 0-.76 2.07c-.246.727-.529 1.48-.628 1.674-.205.402-.798.87-1.361 1.074-.21.076-.56.211-.777.3-.268.11-.773.19-1.566.246-1.643.119-7.048.092-8.2-.04zm49.49-11.065a6.339 6.339 0 0 0-.443-.109c-.127-.025-.578-.341-1.001-.701-2.127-1.81-3.155-2.653-4.104-3.365-.31-.232-.8-.614-1.086-.847-.287-.233-.635-.509-.775-.614a122.1 122.1 0 0 1-.711-.541 4.849 4.849 0 0 0-1.016-.563c-.518-.198-.67-.214-2.083-.221-1.5-.008-1.537-.003-2.328.263-.776.262-1.418.397-3.133.661-.442.069-.976.162-1.185.208-.21.047-.834.124-1.388.173-.554.049-1.031.104-1.062.123-.03.019-.968.113-2.084.208-1.115.096-2.409.222-2.875.281-1.27.161-7.72.128-9.948-.05-2.952-.238-4.49-.397-5.546-.574a51.583 51.583 0 0 0-1.566-.24 24.118 24.118 0 0 1-1.397-.24 39.265 39.265 0 0 0-1.482-.27c-.349-.053-.806-.147-1.016-.208-.21-.06-.762-.178-1.227-.26-.466-.081-.942-.186-1.059-.233a6.253 6.253 0 0 0-.762-.196 18.787 18.787 0 0 1-1.143-.279 358.2 358.2 0 0 0-1.65-.46c-1.097-.303-2.848-.85-3.218-1.004a7.079 7.079 0 0 0-.593-.198c-.21-.06-.533-.168-.72-.24-.186-.071-.814-.3-1.396-.509a63.65 63.65 0 0 1-6.237-2.604 44.202 44.202 0 0 0-1.441-.673c-.11-.042-.799-.407-1.531-.812-.733-.405-1.742-.956-2.244-1.225a29.736 29.736 0 0 1-1.397-.794c-.267-.169-.897-.561-1.4-.873l-1.228-.76c-.519-.324-2.47-1.697-3.754-2.642-.663-.49-1.291-.946-1.394-1.016-.174-.118-2.423-1.947-3.504-2.85-1.924-1.605-5.94-5.52-7.34-7.155-.363-.425-.985-1.147-1.381-1.603a55.829 55.829 0 0 1-1.1-1.307c-.21-.262-.538-.66-.73-.883a15.632 15.632 0 0 1-.755-.988c-.224-.32-.493-.677-.598-.793a8.986 8.986 0 0 1-.49-.635 117.663 117.663 0 0 1-2.254-3.302c-.472-.701-.799-1.222-.982-1.566a5.77 5.77 0 0 0-.362-.593 8.563 8.563 0 0 1-.402-.628 71.358 71.358 0 0 0-.558-.931c-.275-.452-.492-.844-1.15-2.082l-.339-.635c-.1-.186-.372-.72-.605-1.185a85.82 85.82 0 0 0-.58-1.143c-.421-.797-1.493-3.155-2.155-4.741-.398-.953-1.335-3.489-1.334-3.608 0-.052-.109-.338-.243-.635-.134-.298-.272-.674-.306-.837a23.258 23.258 0 0 0-.419-1.397 42.569 42.569 0 0 1-.727-2.413c-.265-.95-.285-1.116-.087-.72.457.912 1.444 3.019 1.444 3.08 0 .04.095.211.21.382.117.17.378.623.581 1.006.676 1.274 1.155 2.12 1.273 2.256.065.074.244.363.398.642.155.28.455.78.666 1.113.212.333.49.77.616.974.283.452.876 1.312 1.335 1.935.189.256.55.751.803 1.1.564.78 1.149 1.526 2.034 2.596.373.45.846 1.03 1.052 1.291.457.58 5.962 6.12 6.926 6.97.383.339.86.742 1.059.896.199.155.979.764 1.733 1.355 2.729 2.137 3.497 2.667 6.175 4.265.366.219.933.566 1.259.772 1.042.66 2.8 1.59 4.995 2.643 1.155.554 3.02 1.395 3.095 1.395.041 0 .295.099.564.22.746.334 2.722 1.033 4.85 1.715.582.187 1.173.38 1.312.428.14.048.826.246 1.524.44 1.15.318 1.75.458 3.768.878.35.073.959.206 1.355.297.395.09 1.462.261 2.37.38.908.12 1.937.26 2.286.312 1.418.212 1.816.248 3.683.333 2.526.116 9.704.034 11.092-.125 3.001-.346 4.137-.497 4.826-.646.419-.09 1.333-.26 2.032-.379 1.41-.238 3.384-.696 4.616-1.069.444-.134.857-.244.918-.244.06 0 .383-.092.717-.203.719-.241 1.8-.57 2.681-.814.974-.271 2.801-.85 3.133-.993.163-.07.525-.196.804-.28.28-.085.813-.273 1.185-.42.373-.145.792-.304.932-.353.783-.271 2.12-.81 2.722-1.096.38-.18.736-.328.792-.328.057 0 .318-.11.58-.242 1.426-.722 3.494-1.706 3.588-1.706.059 0 .24-.083.403-.184.163-.1.85-.467 1.524-.813.676-.346 1.285-.679 1.355-.738.07-.06.356-.228.635-.375.59-.31.937-.514 1.524-.897.233-.152.557-.342.72-.423.163-.08.364-.206.447-.278.083-.073.62-.421 1.194-.773 1.115-.686 1.88-1.199 3.481-2.334.567-.402 1.991-1.48 2.455-1.858.233-.19.526-.42.652-.513.916-.679 2.296-1.818 4.06-3.355 1.428-1.243 5.99-5.76 6.984-6.915a151.904 151.904 0 0 0 2.317-2.731c1.525-1.84 2.92-3.7 4.208-5.606.196-.29.474-.7.618-.909.61-.886 1.385-2.098 1.545-2.412.094-.187.324-.568.51-.847 1.58-2.377 5.364-10.073 6.343-12.905.138-.4.362-.993.496-1.32.274-.662.547-1.453.935-2.709.143-.465.338-1.037.432-1.27.094-.233.2-.556.237-.72.16-.708.452-1.77.673-2.455a9.65 9.65 0 0 0 .297-1.11c.032-.205.129-.638.217-.964.151-.563.362-1.516.644-2.921.07-.35.16-.768.201-.931.04-.163.097-.487.125-.72.028-.233.124-.823.212-1.312.152-.84.208-1.208.428-2.837.05-.372.127-.906.171-1.185.289-1.827.69-11.78.505-12.508-.039-.152-.095-1.02-.126-1.928a73.11 73.11 0 0 0-.13-2.582c-.128-1.59-.243-2.492-.718-5.588-.064-.42-.16-1.067-.213-1.44-.1-.708-.226-1.403-.46-2.54a72.256 72.256 0 0 1-.21-1.058c-.092-.5-.49-2.097-.696-2.802-.09-.307-.197-.745-.237-.974a5.423 5.423 0 0 0-.16-.669c-.05-.14-.134-.425-.19-.635-.055-.21-.195-.647-.31-.973a9 9 0 0 1-.293-1.013 3.096 3.096 0 0 0-.21-.665c-.118-.23-.287-.712-.45-1.286-.069-.239-.36-1.056-1.039-2.92a20.288 20.288 0 0 0-.47-1.186c-.3-.645-.787-1.795-.989-2.328-.105-.28-.467-1.08-.804-1.778a88.021 88.021 0 0 1-.946-2.026c-.184-.416-.404-.854-.488-.974-.085-.12-.29-.513-.456-.874-.235-.513-.269-.639-.151-.576.797.427 1.945.449 4.41.084 2.322-.344 3.353-.503 3.81-.587.21-.039.63-.11.932-.16a52.7 52.7 0 0 0 1.424-.26c1.215-.24 1.417-.227 2.127.138.798.41 1.478 1.14 2.28 2.443.343.557.71 1.147.816 1.31.342.527 1.422 2.418 2.588 4.53.859 1.557 1.122 2.343 1.119 3.346-.002.773-.178 1.167-.825 1.857-.243.258-1.045 1.212-1.783 2.12-.738.908-1.52 1.86-1.737 2.117-.216.256-.44.553-.497.66-.057.106-.32.45-.585.762-.779.916-1.25 1.689-1.421 2.327-.174.65-.25 2.26-.132 2.794.054.243.157.747.229 1.12.14.72.432 1.603.713 2.155.095.185.226.538.292.784.066.246.195.695.288.997.715 2.337 1.527 5.33 1.664 6.139.032.186.225.948.429 1.693.204.745.431 1.698.506 2.117.58 3.262.823 4.044 1.637 5.258.602.899 1.27 1.413 2.394 1.845 2.31.886 2.806 1.078 3.29 1.274.303.122.714.297.913.389.2.091.42.166.489.166.127 0 .602.163 1.477.507.256.101.832.31 1.278.463.447.154.889.32.981.37.275.147.85.955 1.006 1.412.438 1.282.478 1.594.522 4.1.05 2.806-.1 6.653-.275 7.11-.064.168-.16.476-.213.685-.137.54-.552 1.233-.896 1.496-.275.21-.859.45-1.852.76-.233.074-.671.242-.974.375a6.736 6.736 0 0 1-.762.29 5.658 5.658 0 0 0-.677.254c-.256.111-.77.315-1.143.452s-1.002.39-1.397.56c-.396.172-.987.41-1.313.53-1.701.624-2.709 1.461-3.373 2.802-.463.936-.7 1.76-1.241 4.33a79.842 79.842 0 0 1-.642 2.837c-.113.421-.36 1.376-.547 2.12-.523 2.07-.932 3.437-1.914 6.393-1.129 3.398-1.162 3.554-1.112 5.237.038 1.294.177 1.793.705 2.53l.556.784c.147.21.434.572.637.805.445.51.901 1.066 1.83 2.23a54.7 54.7 0 0 0 1.618 1.905c1.488 1.667 1.485 1.661 1.625 2.335.14.674.076 1.082-.347 2.208-.196.522-1.776 3.516-2.19 4.149-.106.163-.376.6-.599.973-.222.373-.49.811-.594.974-.104.163-.427.677-.717 1.143-1.03 1.65-1.41 2.075-2.258 2.514-.71.367-.984.423-1.567.318-.25-.044-.663-.117-.919-.16a94.35 94.35 0 0 1-.973-.176c-.71-.131-1.654-.275-3.81-.578-1.025-.144-2.025-.301-2.224-.35-.525-.126-2.135-.107-2.669.032-1.394.364-2.758 1.415-4.46 3.438-1.464 1.74-5.904 6.251-7.458 7.577-1.449 1.237-3.373 2.937-3.606 3.187-.797.853-1.462 1.955-1.685 2.793-.137.514-.157 2.081-.035 2.741.043.233.155 1.052.248 1.82.094.769.213 1.512.265 1.651.089.236.156.624.456 2.625.063.42.19 1.101.282 1.515l.167.753-.233.575c-.381.936-1.273 1.842-2.605 2.646-.29.175-.766.467-1.058.647-1.59.985-5.317 3.008-6.335 3.44-.743.315-1.704.477-2.113.356zm-47.287-29.33c-.093-.015-1.065-.066-2.159-.113-1.094-.048-2.104-.123-2.244-.166-.14-.044-.749-.14-1.354-.214-1.592-.193-2.71-.36-3.387-.508a5.844 5.844 0 0 0-.952-.131c-.198-.001-.36-.035-.36-.075 0-.041-.2-.1-.444-.133a3.26 3.26 0 0 1-.698-.17 4.819 4.819 0 0 0-.763-.212 39.06 39.06 0 0 1-1.667-.38 1.802 1.802 0 0 1-.296-.113c-.085-.042-.497-.163-.916-.268-.42-.105-.838-.224-.931-.264a5.672 5.672 0 0 0-.55-.176c-.21-.056-.42-.13-.466-.161a1.408 1.408 0 0 0-.339-.119 3.68 3.68 0 0 1-.508-.17 7.431 7.431 0 0 0-.83-.259c-.317-.081-.631-.203-.699-.27-.067-.067-.123-.091-.123-.053-.001.038-.03.026-.064-.027s-.318-.175-.632-.271c-.313-.097-.77-.268-1.016-.38-1.078-.49-1.248-.56-1.45-.597-.224-.041-1.009-.467-1.055-.574-.014-.034-.08-.04-.148-.015-.067.026-.121.01-.121-.036 0-.069-.306-.179-.617-.222-.037-.005-.094-.048-.127-.094-.068-.095-.332-.27-.526-.35-.07-.028-.282-.123-.472-.21-.189-.088-.376-.16-.416-.16-.04 0-.138-.06-.218-.131-.156-.141-.95-.58-1.656-.915-.239-.113-.46-.247-.492-.299-.032-.051-.262-.187-.51-.3-.25-.115-.479-.249-.51-.299-.03-.05-.21-.176-.4-.28-.362-.199-.373-.205-1.037-.637-.23-.15-.468-.272-.528-.272s-.157-.076-.216-.169c-.058-.093-.137-.17-.176-.17-.04 0-.284-.152-.544-.338-.26-.186-.5-.339-.532-.339-.032 0-.2-.133-.373-.296a4.524 4.524 0 0 0-.71-.523c-.375-.215-.48-.295-.843-.637-.26-.246-.783-.576-.912-.576-.068 0-.123-.049-.123-.11 0-.06-.193-.256-.428-.435a11.51 11.51 0 0 1-.666-.547c-.591-.547-1.107-.94-1.237-.94-.077 0-.16-.076-.185-.169-.024-.093-.095-.17-.158-.17s-.16-.085-.216-.19c-.056-.105-.257-.324-.447-.487-.19-.163-.574-.515-.853-.783s-.536-.487-.572-.487c-.035 0-.064-.04-.064-.09 0-.141-.224-.331-.506-.43-.157-.054-.277-.166-.307-.287-.027-.109-.275-.412-.55-.675-.275-.262-.5-.494-.5-.516 0-.021-.133-.156-.296-.299-.163-.143-.297-.292-.297-.33 0-.1-1-1.098-1.101-1.098-.046 0-.084-.074-.084-.165 0-.09-.051-.196-.114-.233-.062-.037-.18-.172-.263-.3-.083-.129-.206-.233-.273-.233-.067 0-.099-.038-.07-.084.028-.046-.11-.237-.305-.423-.197-.187-.334-.34-.306-.34.028 0-.06-.123-.198-.273-.137-.15-.25-.302-.25-.338 0-.037-.056-.066-.126-.066a.127.127 0 0 1-.127-.127c0-.07-.072-.2-.161-.288a.987.987 0 0 1-.212-.322c-.028-.089-.196-.312-.372-.496-.31-.321-.353-.386-.358-.524 0-.035-.132-.216-.291-.402-.16-.187-.368-.434-.463-.55-.223-.273-.598-.84-.598-.904 0-.081-.698-1.084-.776-1.115-.039-.015-.071-.067-.071-.116 0-.048-.152-.316-.339-.595a6.354 6.354 0 0 1-.338-.538c0-.017-.134-.24-.298-.497a5.366 5.366 0 0 1-.379-.679c-.045-.117-.12-.213-.168-.213-.048 0-.087-.07-.087-.156s-.076-.226-.17-.31c-.092-.084-.168-.22-.168-.303a.43.43 0 0 0-.113-.263 1.769 1.769 0 0 1-.233-.337c-.066-.123-.23-.427-.366-.676-.299-.552-.482-.92-.72-1.448-.1-.221-.218-.402-.264-.402-.045 0-.082-.073-.082-.162 0-.09-.029-.175-.064-.19-.035-.016-.133-.231-.217-.479-.084-.247-.227-.524-.317-.614a.605.605 0 0 1-.164-.365c0-.238-.229-.814-.373-.939-.055-.048-.15-.24-.212-.426a87.655 87.655 0 0 0-1.028-2.71c-.04-.092-.177-.512-.303-.93-.127-.42-.258-.782-.29-.805-.085-.059-.43-1.164-.474-1.52-.02-.16-.069-.332-.107-.381-.076-.096-.344-.967-.549-1.782-.322-1.282-.644-2.754-.644-2.946 0-.116-.05-.23-.112-.254-.073-.028-.11-.181-.106-.433.004-.214-.022-.389-.056-.389-.035 0-.058-.143-.05-.318a2.204 2.204 0 0 0-.079-.614c-.05-.163-.116-.581-.147-.93-.031-.35-.092-.678-.135-.73-.09-.108-.372-2.287-.46-3.546a31.491 31.491 0 0 0-.09-1.1 84.321 84.321 0 0 1-.127-2.41c-.097-2.226-.013-5.721.186-7.75.05-.513.107-1.16.126-1.44.019-.28.072-.715.119-.968.046-.253.085-.605.085-.783 0-.178.028-.323.063-.323s.071-.086.08-.19c.01-.106.053-.382.097-.615.073-.39.128-.777.352-2.468.044-.334.135-.734.203-.89.067-.155.203-.663.302-1.129.322-1.513.835-3.402.986-3.63.058-.086.085-.21.06-.274-.025-.065-.004-.118.046-.118s.073-.047.051-.105c-.046-.122.253-1.217.372-1.363.106-.13.52-1.343.52-1.522 0-.078.038-.142.085-.142.047 0 .085-.06.085-.132 0-.072.152-.517.338-.99.187-.472.339-.942.339-1.045 0-.102.048-.204.106-.227.058-.023.155-.203.215-.4s.157-.406.215-.464c.059-.059.156-.274.217-.478.06-.204.166-.466.234-.582.068-.117.22-.422.337-.678.25-.542.93-1.913 1.023-2.059a.538.538 0 0 0 .069-.142c.015-.118.153-.471.199-.508.028-.023.125-.186.215-.362.16-.316.448-.474.662-.363.404.208 2.386 1.51 2.42 1.59.016.036.149.122.297.193.147.07.379.222.514.339.135.116.312.212.393.212.08 0 .166.047.19.106.022.058.188.182.368.275.382.198.577.342.873.643.184.186.215.29.203.677a4.582 4.582 0 0 1-.032.5.235.235 0 0 0-.008.105c.005.035.01 12.01.01 26.611l.001 26.548.224.208c.123.113.27.207.327.207.056 0 .2.076.318.169.118.093.276.17.35.17.074 0 .135.028.135.063.001.075.483.36.61.36.05 0 .155.075.234.166.08.092.332.247.56.345.23.098.473.23.543.292.07.062.375.24.678.396.303.155.665.363.805.462.139.1.525.316.857.483.332.167.658.357.724.424.067.066.366.247.666.4.3.155.68.363.842.463.163.1.506.297.762.439l.89.493c.232.13.486.29.563.356a.673.673 0 0 0 .254.138c.164.028.5.222.691.4.163.15.613.392.777.415.047.007.206.105.354.218.149.113.294.206.324.206.03 0 .316.152.635.338.319.187.633.339.698.339.065 0 .208.095.318.212.109.116.268.211.353.211.085 0 .155.034.155.076 0 .042.047.094.105.116.103.04.128-.117.163-1.038.006-.163.003-2.259-.007-4.657s.007-4.427.038-4.508c.038-.098-.025-.246-.184-.438-.306-.366-.58-.753-.58-.821 0-.029-.128-.181-.283-.339-.155-.157-.474-.582-.71-.942-.234-.361-.46-.657-.499-.657-.04 0-.096-.095-.125-.211-.03-.117-.087-.212-.129-.212-.041 0-.075-.055-.075-.123a.254.254 0 0 0-.106-.19c-.058-.037-.18-.201-.269-.364a2.355 2.355 0 0 0-.211-.339c-.027-.023-.202-.342-.388-.707-.186-.366-.386-.684-.444-.708a.184.184 0 0 1-.106-.158c0-.145-.347-.888-.48-1.03-.055-.057-.143-.238-.197-.402-.054-.163-.133-.297-.176-.297-.043 0-.078-.13-.078-.29 0-.158-.037-.301-.08-.317-.118-.04-.561-1.154-.9-2.257-.162-.527-.349-1.042-.414-1.143-.066-.101-.168-.498-.228-.882-.06-.385-.132-.699-.16-.699-.027 0-.059-.18-.07-.4-.012-.22-.05-.42-.086-.445-.088-.06-.325-1.374-.431-2.39-.23-2.185.04-6.592.434-7.067a.703.703 0 0 0 .108-.296 1.84 1.84 0 0 1 .073-.324c.026-.07.071-.305.1-.523.03-.218.123-.485.208-.593.085-.108.215-.375.289-.593.184-.54.762-1.61 1.21-2.239.203-.285.37-.571.37-.635 0-.064.142-.231.315-.37a7.877 7.877 0 0 0 1.123-1.129c.116-.147.282-.268.368-.268.086 0 .312-.133.503-.296.19-.163.396-.297.458-.297.061 0 .112-.035.112-.078 0-.114 1.172-.651 2.152-.985a9.936 9.936 0 0 1 1.573-.384c.396-.052.79-.13.876-.176.18-.094 2.066-.075 2.257.024.07.036.45.105.846.154.396.05.853.111 1.016.138.85.142 2.981.853 3.302 1.102.07.054.24.125.376.157.137.033.347.13.466.214.12.086.5.293.846.461.346.168.688.353.761.411.239.189.53.33.58.28.026-.026.003-.048-.051-.048-.055 0-.1-.038-.1-.084 0-.047.058-.085.128-.085.077 0 .127.079.127.198 0 .151.102.254.431.433.237.13.53.345.649.48.12.134.251.244.292.244.041 0 .216.13.388.29.173.16.447.381.61.492.307.209 1.031.84 1.265 1.102.073.082.243.254.377.381.802.76 1.66 1.67 1.66 1.76 0 .038.134.205.297.371l.55.561c.14.143.254.299.254.347 0 .049.076.157.17.241.093.085.169.202.169.26 0 .06.03.12.068.136.15.061.778.942.986 1.382.122.256.258.466.303.466.045 0 .082.057.082.127s.047.118.104.106c.057-.012.117.062.132.163a.53.53 0 0 0 .15.286c.067.055.122.135.122.177 0 .042.103.237.229.434s.357.625.514.95c.158.327.335.65.395.72.06.07.212.404.34.741.126.338.265.614.308.614.042 0 .077.095.077.212 0 .116.032.211.071.211.04 0 .141.23.226.512.086.282.187.532.226.556.038.024.07.102.07.173 0 .072.052.25.117.398.24.548.559 1.644.865 2.976.086.372.182.696.213.72.183.135.5 3.486.498 5.249-.004 2.068-.295 4.656-.524 4.656-.038 0-.069.065-.069.144 0 .23-.427 1.545-.69 2.125-.132.293-.241.562-.241.597 0 .12-.212.52-.275.52-.035 0-.064.058-.064.128s-.037.127-.083.127c-.046 0-.107.095-.136.212-.03.116-.087.211-.129.211-.041 0-.075.054-.075.12s-.03.133-.066.149c-.036.015-.364.409-.73.874-.365.466-.716.878-.78.915a.249.249 0 0 0-.117.19c0 .068-.074.123-.164.123-.09 0-.245.114-.344.254-.1.14-.222.254-.273.254-.09 0-1 .571-1.082.68-.023.03-.204.125-.402.212-.198.086-.36.184-.36.218s-.115.087-.255.118c-.22.048-.54.38-.366.38.034 0 .016.046-.04.102-.077.078-.101 1.775-.101 7.121v7.02l.227.181c.124.1.343.242.486.316.438.226 1.066.582 1.996 1.135.49.29.975.554 1.08.587a.971.971 0 0 1 .332.202c.078.079.164.145.19.147.027.002.183.088.346.19.163.103.34.187.395.187.054 0 .111.034.127.076.032.089.848.566 1.192.698.128.05.233.124.233.166 0 .042.038.076.084.076.046 0 .35.17.674.379.325.208.685.402.8.43.114.03.23.11.255.178.027.068.087.1.134.072.047-.03.085-.017.085.028 0 .044.143.141.317.217.353.151.575.284.793.474.08.07.34.202.577.294.236.092.43.215.43.275 0 .06.054.108.12.108.15 0 .64.275.641.36 0 .035.058.064.128.064s.127.028.128.063c0 .035.162.138.36.229.71.326.655.023.655 3.61 0 2.794-.017 3.214-.133 3.33-.074.074-.14.129-.149.122a1.21 1.21 0 0 0-.184-.04zm4.106-3.293v-3.25l.533-.255c.293-.14.622-.331.73-.426.11-.094.232-.151.272-.126.04.025.074.005.074-.045 0-.05.143-.157.317-.238.175-.08.337-.17.36-.197.024-.028.157-.11.297-.184l.529-.277c.151-.079.275-.177.275-.218 0-.042.06-.075.132-.075.072 0 .428-.19.791-.424.363-.233.723-.423.8-.423.077 0 .14-.032.14-.07 0-.086 1.11-.743 1.203-.713.037.011.067-.017.067-.064 0-.046.036-.084.08-.084.044 0 .25-.115.457-.254.207-.14.418-.254.47-.254.051 0 .093-.034.093-.076 0-.041.162-.14.36-.217a3.21 3.21 0 0 0 .678-.395c.175-.14.461-.312.635-.385.174-.072.336-.156.36-.186.023-.03.213-.146.423-.258.21-.113.745-.424 1.19-.691.445-.267.979-.565 1.185-.663.207-.097.485-.27.618-.385.133-.115.371-.251.53-.303.157-.053.287-.13.287-.173 0-.043.032-.078.072-.078.077 0 1.204-.64 1.917-1.089.233-.146.604-.356.824-.465.22-.11.376-.224.346-.254-.03-.03.01-.055.09-.055.088 0 .135-.055.12-.14-.014-.076.023-.155.08-.176.059-.02.107.007.107.061 0 .055.196-.014.444-.154l.783-.441c.688-.385 1.028-.58 1.524-.875.28-.166.642-.37.805-.453.163-.083.309-.179.324-.214.016-.035.063-.063.105-.063.042 0 .144-.057.226-.126.232-.197 1.952-1.196 2.54-1.477.292-.14.53-.29.53-.335 0-.046.086-.11.19-.142.105-.033.214-.095.242-.139a.274.274 0 0 1 .17-.096c.15-.023 1.632-.913 1.67-1.004.015-.037.085-.068.154-.068.07 0 .288-.112.487-.249.199-.136.577-.35.84-.475.265-.125.48-.251.48-.28 0-.03.181-.15.402-.265.222-.116.453-.258.514-.317a.84.84 0 0 1 .318-.159c.113-.028.206-.081.206-.118 0-.036.092-.09.205-.118a.813.813 0 0 0 .318-.162c.061-.061.293-.201.514-.311.221-.11.479-.272.572-.358.093-.087.169-.131.169-.1 0 .033.066 0 .148-.072.081-.072.299-.194.484-.27.184-.077.356-.17.38-.207.058-.086 1.51-.942 1.598-.942.036 0 .234-.123.44-.275.206-.151.375-.257.376-.235.004.071.976-.517.976-.591 0-.04.134-.121.297-.18.163-.059.296-.138.296-.175 0-.037.029-.059.063-.048.035.01.426-.192.868-.45 1.21-.708 1.595-.926 2.111-1.198.26-.136.539-.32.622-.409a.872.872 0 0 1 .36-.214c.115-.03.21-.087.21-.128 0-.042.028-.067.063-.057.035.01.159-.04.275-.114.116-.072.497-.297.847-.498.349-.202.825-.482 1.058-.622.233-.14.63-.363.884-.494.254-.132.482-.272.508-.312.049-.074.816-.513 1.592-.911.245-.126.445-.257.445-.293 0-.035.058-.077.129-.092.114-.024.129-1.061.126-9.292 0-5.096-.014-9.277-.029-9.291-.024-.024-.476.277-.698.466a.99.99 0 0 1-.278.137c-.102.032-.385.19-.628.351-.243.161-.528.315-.633.342-.105.026-.19.078-.19.114 0 .036-.124.115-.276.177a1.518 1.518 0 0 0-.387.222c-.061.06-.159.11-.216.11-.058 0-.18.068-.27.152-.09.083-.42.272-.735.419-.315.146-.572.307-.572.356 0 .049-.052.089-.116.089s-.164.057-.222.127a.381.381 0 0 1-.254.127.368.368 0 0 0-.248.119c-.054.065-.23.182-.391.258-.161.076-.293.169-.293.205 0 .037-.05.067-.114.067-.062 0-.343.14-.624.31-.282.171-.545.312-.585.313-.127.003-.706.565-.645.626.032.032.02.085-.029.117-.095.064-.459 1.237-.458 1.477 0 .082-.04.148-.09.148-.049 0-.063.043-.031.094.032.052.02.119-.027.149s-.22.454-.383.943c-.367 1.097-.822 2.297-.919 2.42-.04.051-.047.118-.017.149.03.03.016.055-.034.055-.079 0-.17.219-.242.582-.046.233-.227.604-.294.604-.037 0-.092.073-.12.163-.028.09-.144.299-.257.465-.113.167-.187.303-.165.303.079 0-1 1.66-1.428 2.197-.165.207-.281.407-.258.445.023.037.01.067-.029.067s-.241.232-.45.515c-.208.283-.46.598-.558.699-.098.1-.445.488-.771.86-.513.588-.944 1.022-2.377 2.392-.158.152-.317.276-.352.276-.035 0-.249.171-.474.38-.225.21-.434.382-.465.382-.03 0-.154.09-.275.203-.12.111-.25.216-.287.232-.038.017-.393.244-.788.504-.396.26-1.044.642-1.44.847-.396.205-.732.401-.748.436-.015.035-.085.064-.154.064a.432.432 0 0 0-.25.124c-.07.069-.286.172-.481.23-.196.056-.375.127-.399.156-.087.108-2.113.707-3.09.914-.89.188-1.227.215-2.71.218-1.836.003-2.608-.098-3.894-.513-.676-.219-1.33-.522-1.383-.643-.015-.034-.094-.063-.175-.063-.23 0-1.608-.945-2.144-1.471-.267-.262-.515-.477-.55-.477-.037 0-.13-.105-.21-.233a12.686 12.686 0 0 0-.56-.77c-.23-.297-.501-.704-.602-.907-.114-.228-.226-.35-.296-.324-.074.028-.113-.024-.113-.152 0-.108-.099-.4-.22-.652-.12-.25-.201-.486-.179-.522.023-.037-.013-.12-.078-.186-.235-.235-.678-1.85-.947-3.45-.183-1.09-.253-4.026-.13-5.392.171-1.879.82-5.276 1.032-5.407.043-.027.078-.154.078-.283 0-.13.026-.262.059-.294.032-.032.07-.143.086-.247.042-.287.295-1.03.367-1.077.069-.045.524-1.398.502-1.492-.007-.03.02-.079.058-.107.04-.029.181-.3.316-.602.59-1.323.844-1.841 1.05-2.146.122-.18.233-.408.247-.508.015-.1.101-.278.192-.394.09-.117.285-.422.434-.678.148-.256.454-.74.68-1.075.227-.336.412-.633.412-.66 0-.028.096-.153.214-.28.118-.125.308-.387.423-.581.186-.316.32-.48.894-1.09.09-.094.162-.199.162-.232 0-.083.246-.374.571-.678.152-.141.276-.31.276-.375s.035-.097.078-.07c.043.027.101-.022.129-.109a.558.558 0 0 1 .244-.26.99.99 0 0 0 .316-.304c.067-.11.35-.4.63-.644.279-.244.496-.495.483-.557-.014-.061.044-.112.129-.112s.375-.21.646-.466.52-.465.553-.465c.033 0 .206-.134.384-.297.178-.163.357-.296.398-.296.04 0 .074-.038.074-.085 0-.046.058-.084.13-.084a.209.209 0 0 0 .178-.127c.026-.07.085-.127.13-.127.074 0 .816-.475.917-.587.045-.05.661-.387 1.396-.763.233-.12.436-.246.452-.28.016-.036.063-.043.106-.017.042.026.077.005.077-.047s.035-.073.078-.047c.042.027.09.018.105-.018.065-.152 2.286-.974 3.162-1.171.14-.031.292-.085.338-.12.22-.162 1.54-.273 3.302-.277 1.316-.003 2.65.127 2.752.269.023.033.29.132.593.221.981.287 1.884.754 2.527 1.308.335.288.599.487.586.442-.013-.045.015-.076.061-.07.047.008.085.062.086.12 0 .126 1.075 1.079 1.417 1.258.221.115.274.1 1.058-.316.455-.24.839-.47.854-.51.016-.04.078-.073.138-.073.17 0 .81-.307 1.231-.59.21-.14.443-.256.519-.256a.37.37 0 0 0 .242-.127c.058-.069.139-.105.18-.08.041.026.075.011.075-.033 0-.045.093-.104.206-.132a.887.887 0 0 0 .322-.158c.063-.058.761-.43 1.55-.825.79-.396 1.478-.76 1.53-.807.05-.048.26-.162.465-.252.205-.09.4-.203.434-.251.035-.048.063-.054.064-.013 0 .04.054.03.12-.024.064-.054.35-.211.634-.349l.516-.25.022-9.077.021-9.076.55-.324c.303-.178.732-.404.953-.502.221-.098.402-.214.402-.257 0-.044.034-.06.074-.034.04.025.183-.049.318-.164.134-.116.262-.213.286-.217.261-.04.372-.08.415-.145.028-.044.136-.106.24-.139.106-.032.191-.092.191-.132 0-.04.134-.116.298-.17.163-.054.346-.143.405-.197.06-.055.403-.249.762-.432l.653-.333.169.181c.093.1.169.218.169.263 0 .044.03.094.065.109.081.035 1.374 2.652 1.374 2.781 0 .051.04.068.09.038.05-.031.084-.004.075.058-.033.24.009.403.137.531a.562.562 0 0 1 .145.302c.007.094.035.17.063.17.08 0 .337.58.337.758 0 .088.031.172.07.188.038.015.286.6.551 1.298.265.699.558 1.461.65 1.695.092.234.168.469.168.522 0 .054.039.11.086.126.047.016.102.153.121.305.044.346.213.882.311.989.041.044.075.184.075.31 0 .127.028.243.063.258.086.039.375.971.742 2.4.168.651.327 1.242.354 1.312.027.07.057.184.066.254.033.245.486 2.414.53 2.54.026.07.062.278.083.464.02.186.066.357.102.381.086.058.347 1.797.346 2.308 0 .222.035.403.078.403s.08.29.082.643c.002.355.037.688.08.741.092.119.236 1.596.363 3.738.178 3.02-.078 10.672-.36 10.78-.041.016-.074.31-.074.652 0 .343-.038.646-.085.675-.046.029-.084.262-.084.517 0 .54-.254 2.172-.347 2.236-.035.024-.076.233-.092.466-.015.232-.049.44-.076.464-.039.034-.453 1.921-.538 2.456-.012.07-.064.279-.117.465-.054.186-.212.777-.352 1.313-.32 1.222-.618 2.23-.677 2.286a.499.499 0 0 0-.07.211 2.11 2.11 0 0 1-.147.433 4.34 4.34 0 0 0-.218.72c-.053.25-.123.475-.155.498-.032.023-.145.29-.252.593-.106.303-.223.626-.259.72l-.472 1.227c-.223.582-.438 1.071-.476 1.087-.039.015-.07.098-.07.183 0 .204-.299.897-.418.97-.051.032-.071.093-.044.137.026.043.004.079-.05.079-.055 0-.077.057-.05.127.026.07.02.127-.015.127-.052 0-.142.17-.31.592-.117.293-.858 1.777-1.093 2.188-.168.296-.306.591-.306.657 0 .065-.035.119-.078.119s-.103.114-.134.254c-.03.14-.09.254-.134.254-.043 0-.078.054-.078.12s-.089.228-.197.36a4.496 4.496 0 0 0-.427.705c-.252.512-.763 1.35-.872 1.43-.039.029-.083.128-.1.22-.016.094-.056.19-.088.213-.082.058-.836 1.207-.86 1.312a.404.404 0 0 1-.122.17c-.162.134-1.059 1.455-1.059 1.557 0 .051-.038.093-.085.093-.046 0-.084.053-.084.118s-.057.14-.127.167c-.07.027-.127.09-.127.14 0 .05-.04.136-.088.193l-.38.44c-.162.187-.294.365-.294.397 0 .055-.47.645-.847 1.06-.093.104-.17.218-.17.255 0 .037-.124.202-.275.367-.15.166-.376.432-.5.593-.125.16-.363.444-.528.63-.166.187-.302.387-.303.445-.001.058-.035.106-.077.106-.074 0-.771.664-.771.735 0 .182-4.095 4.174-5.588 5.448a24.36 24.36 0 0 0-.762.665c-.101.123-.76.602-.827.602-.041 0-.225.152-.407.338-.183.185-.37.339-.417.34-.047.003-.257.16-.466.349-.387.35-.79.644-1.341.98-.168.102-.345.236-.393.296-.047.06-.227.182-.4.27-.172.087-.397.249-.501.36-.104.11-.24.2-.304.2-.063 0-.136.057-.163.127-.027.07-.092.13-.146.133-.053.003-.592.327-1.197.72-.606.393-1.339.83-1.63.97-.291.139-.53.285-.53.324 0 .04-.161.142-.359.23a2.693 2.693 0 0 0-.402.203c-.023.025-.185.11-.358.19-.22.102-.3.186-.266.276.032.084 0 .13-.092.13-.08 0-.116-.04-.084-.093.066-.107-.49.165-.561.275-.027.041-.133.091-.236.111-.102.02-.541.228-.975.463-.434.234-.814.401-.844.37-.03-.03-.055-.008-.055.05 0 .056-.035.081-.078.055-.043-.027-.129.001-.19.062-.145.14-.72.41-1.891.884-.513.208-.98.417-1.038.465-.058.048-.105.059-.105.024 0-.035-.051-.021-.113.03-.062.052-.376.175-.698.274-.323.099-.628.213-.679.255-.05.04-.117.05-.148.019-.03-.03-.056-.01-.056.048 0 .057-.038.08-.084.051-.047-.028-.085-.02-.085.018 0 .086-.763.363-1 .363-.094 0-.184.036-.2.08-.015.042-.142.09-.282.105-.14.015-.273.05-.296.078-.023.028-.31.138-.635.244-.326.106-.633.225-.681.263a.466.466 0 0 1-.254.065c-.212-.006-1.745.427-1.867.528-.05.041-.117.051-.146.022-.03-.03-.111-.006-.182.052-.07.059-.185.084-.256.057-.07-.027-.128-.014-.128.028s-.18.1-.402.13c-.57.073-1.234.222-1.333.298-.125.095-3.145.673-3.641.697-.233.011-.443.044-.466.073-.05.063-2.73.413-3.16.413-.166 0-.326.04-.357.09-.03.05-.214.084-.407.074-.193-.009-.409.004-.478.03-.07.025-.937.066-1.927.091l-1.799.045zm52.743-19.053c.068-.091.215-.268.328-.392a5.79 5.79 0 0 0 .47-.653c.146-.234.706-1.084 1.245-1.89 1.238-1.85 1.358-2.04 1.676-2.67.144-.285.3-.542.348-.571.048-.03.195-.27.326-.536.132-.265.411-.786.621-1.159.338-.6.629-1.183 1.942-3.894.18-.373.438-.944.573-1.27.134-.326.362-.86.506-1.186.428-.971 1.555-4.023 1.829-4.953.061-.21.159-.495.216-.635.13-.313.397-1.268.547-1.947a8.12 8.12 0 0 1 .292-.974c.099-.256.215-.656.259-.889.264-1.416.43-2.177.507-2.322.049-.09.088-.357.088-.593 0-.235.076-.648.168-.915.194-.566.402-1.802.517-3.07a26.59 26.59 0 0 1 .2-1.609c.255-1.53.343-3.718.34-8.466-.002-3.145-.036-4.923-.103-5.377a65.87 65.87 0 0 1-.23-1.862c-.149-1.367-.403-3.105-.586-4.022a7.09 7.09 0 0 1-.132-1.032 2.21 2.21 0 0 0-.098-.635c-.102-.26-.383-1.366-.5-1.974-.181-.925-.936-3.697-1.063-3.904-.03-.05-.104-.305-.162-.569a6.65 6.65 0 0 0-.282-.903 25.52 25.52 0 0 1-.468-1.312 45.941 45.941 0 0 0-.567-1.609 50.9 50.9 0 0 1-.433-1.18 3.917 3.917 0 0 0-.28-.647c-.067-.102-.26-.542-.43-.978a14.97 14.97 0 0 0-.424-1.005c-.063-.116-.583-1.155-1.156-2.307-1.493-3.004-1.62-3.248-1.77-3.421-.076-.086-.317-.48-.537-.876-.671-1.209-1.182-2.075-1.36-2.307a7.948 7.948 0 0 1-.423-.66 6.826 6.826 0 0 0-.468-.705 10.34 10.34 0 0 1-.465-.645 28.33 28.33 0 0 0-.692-.974l-.804-1.085c-.2-.271-.526-.69-.723-.932-.197-.241-.55-.683-.783-.982-1.116-1.426-3.828-4.347-5.864-6.315-1.214-1.174-3.99-3.754-4.382-4.074a78.72 78.72 0 0 1-1.313-1.134 33.409 33.409 0 0 0-1.354-1.142c-.187-.138-.53-.408-.762-.6-.784-.65-3.115-2.393-4.064-3.04-1.917-1.309-3.158-2.108-4.738-3.052a4.085 4.085 0 0 1-.442-.303c-.085-.072-.474-.292-.865-.488-.39-.197-.828-.446-.973-.555-.36-.268-4.811-2.503-6.321-3.173a92.979 92.979 0 0 1-2.076-.953c-.468-.225-.878-.409-.91-.409-.033 0-.454-.168-.935-.374a21.171 21.171 0 0 0-1.544-.586 26.328 26.328 0 0 1-1.347-.477 29.063 29.063 0 0 0-1.44-.51c-.418-.133-1.219-.395-1.777-.58a43.051 43.051 0 0 0-2.879-.866c-3.559-.937-4.702-1.206-6.265-1.478l-1.984-.344c-.673-.117-1.25-.23-1.282-.25-.032-.02-.701-.114-1.487-.21-.785-.095-1.676-.21-1.978-.255-1.703-.255-6.49-.51-9.652-.515-4.821-.006-9.162.35-14.14 1.163-.721.118-1.54.25-1.82.294-.28.044-.68.134-.889.2-.21.066-.59.16-.847.209-.655.125-1.166.236-1.608.35-.496.127-.811.203-1.736.421-.42.099-.895.23-1.058.29a10.42 10.42 0 0 1-.932.262c-.349.083-.749.2-.889.26-.236.1-.579.207-1.862.58-.28.08-.802.257-1.162.392-.36.136-.697.246-.751.246-.054 0-.313.092-.574.204-.262.111-.8.324-1.196.473a78.02 78.02 0 0 0-1.651.649c-.513.208-1.217.493-1.567.633-.349.14-.787.324-.973.41-3.657 1.68-4.555 2.107-5.334 2.536-.576.317-.856.467-2.456 1.317-.419.223-.838.472-.931.553a3.23 3.23 0 0 1-.536.333c-.202.1-.751.435-1.22.742a79.69 79.69 0 0 1-1.419.905c-.789.486-1.342.846-1.727 1.124-.182.131-.474.334-.65.45-.177.117-.706.498-1.176.847-.47.35-1.129.838-1.466 1.085-3.777 2.782-9.515 8.224-13.06 12.387a125.941 125.941 0 0 0-2.58 3.118c-.442.568-.93 1.188-1.084 1.379-.154.19-.448.597-.653.904-.205.307-.501.749-.66.981l-.701 1.046c-.229.342-.459.685-.512.762a86.626 86.626 0 0 0-1.263 1.924 3.314 3.314 0 0 1-.224.336c-.028.027-.096-.22-.151-.55a7.007 7.007 0 0 0-.25-1.004c-.136-.376-1.346-2.074-2.242-3.149a89.418 89.418 0 0 1-1.658-2.068 33.534 33.534 0 0 0-1.03-1.242c-1.78-2.007-1.904-2.272-1.679-3.59.04-.233.128-.633.195-.889.12-.453 1.544-3.127 2.346-4.403.22-.349.486-.806.592-1.016.106-.21.391-.685.634-1.058s.55-.868.682-1.1c.777-1.371 1.479-2.123 2.39-2.562.712-.342.726-.342 2.898.056.256.047.942.162 1.524.256.582.093 1.287.209 1.566.257 2.866.489 4.093.626 5.121.572.904-.048.94-.058 1.753-.478.99-.51 2.156-1.493 3.033-2.554 2.19-2.651 6.544-7.042 9.491-9.575 1.366-1.174 2.339-2.134 2.645-2.61.075-.116.274-.388.442-.604.169-.217.396-.67.51-1.016.174-.532.202-.778.196-1.682a19.559 19.559 0 0 0-.155-2.116c-.505-3.621-.778-5.305-1.154-7.121-.146-.704.106-1.314.902-2.176.544-.589.752-.737 2.16-1.533l2.403-1.364c1.184-.674 4.611-2.336 5.145-2.495.244-.073.72-.156 1.06-.185.9-.077 1.491.121 2.174.73 1.159 1.031 2.882 2.392 3.962 3.127.268.183.82.58 1.227.883 1.321.982 1.582 1.16 1.968 1.344.675.32 1.18.406 2.381.407 1.25 0 2.255-.138 3.335-.462a95.5 95.5 0 0 1 1.439-.416l1.947-.547a27.688 27.688 0 0 1 1.948-.476 42.22 42.22 0 0 0 1.61-.341c2.075-.488 4.975-1.023 7.322-1.35.861-.12 1.814-.294 2.117-.386.302-.093.615-.169.694-.17.298 0 1.824-.86 2.234-1.256.57-.553 1.247-1.69 1.733-2.909.087-.218.312-.718.5-1.11.188-.392.342-.747.342-.788 0-.041.096-.263.212-.492.116-.229.211-.5.211-.603 0-.103.095-.395.211-.648.116-.254.249-.66.295-.902.046-.242.176-.678.289-.968.112-.29.228-.663.257-.831.035-.207.203-.472.526-.829.513-.566.768-.723 1.682-1.035l.593-.202H112.719l.677.239c1.551.547 1.88.937 2.487 2.953.465 1.543.522 1.719.78 2.395.09.232.162.484.162.56 0 .075.087.266.192.424.106.158.303.573.438.922.548 1.415 1.428 3.09 1.924 3.663.42.487 1.051.866 2.188 1.315.7.277 1.352.412 3.556.737.815.12 1.843.29 2.286.378.442.088 1.318.257 1.947.376 2.866.543 3.54.688 5.207 1.117 2.397.617 3.42.894 4.276 1.157 1.232.38 1.949.486 3.265.486 1.614 0 2.125-.126 3.037-.749 1.268-.865 3.837-2.704 4.336-3.104l1.04-.833c.3-.24.777-.646 1.059-.902.534-.485.861-.676 1.462-.852.46-.135 1.569-.047 2.235.178.543.182 3.768 1.807 5.35 2.695.55.309 1.36.76 1.801 1.002 1.718.945 2.483 1.588 2.953 2.482.336.64.335.632.146 1.649-.043.233-.144.842-.225 1.355-.08.512-.177 1.102-.215 1.312-.16.9-.349 2.123-.423 2.752-.045.372-.118.83-.164 1.016-.155.627-.274 2.258-.216 2.952.125 1.489.642 2.408 2.365 4.202.881.919 2.064 2.275 2.201 2.525.043.078.31.416.593.751s.62.754.75.932c.129.177.399.531.6.787.201.256.547.733.768 1.059.222.326.471.669.554.762.159.177.98 1.361 1.499 2.159.872 1.342 1.04 1.604 1.299 2.032.564.931 1.317 2.23 1.637 2.822.18.334.433.764.562.956.29.433 2.297 4.499 2.815 5.704.445 1.035 1.2 2.856 1.387 3.345.071.186.2.49.288.677.139.298.384.97.818 2.244l.549 1.608c.23.676.49 1.495.579 1.82.157.586.338 1.219.727 2.54.25.848.626 2.573.626 2.866 0 .12.053.344.118.497.13.307.368 1.412.49 2.268.044.303.134.722.2.931.067.21.163.705.214 1.101.052.396.149 1.1.216 1.566.068.466.161 1.247.208 1.736l.168 1.736.166 1.735c.144 1.53.25 5.293.206 7.324-.084 3.896-.606 9.287-1.139 11.769a71.43 71.43 0 0 0-.3 1.481c-.074.396-.19.987-.258 1.313-.069.326-.158.783-.199 1.016-.04.233-.118.594-.172.804-.054.21-.13.533-.17.72-.041.186-.11.434-.153.55a3.886 3.886 0 0 0-.139.635 6.175 6.175 0 0 1-.213.889c-.416 1.26-.597 1.87-.597 2.013 0 .153-.292 1.036-.707 2.136-.376.998-.454 1.221-.652 1.862-.108.35-.284.815-.392 1.035-.108.22-.197.454-.197.522s-.176.555-.39 1.082c-.215.528-.542 1.34-.727 1.806-.59 1.491-2.996 6.24-4.142 8.173a31.38 31.38 0 0 0-.605 1.056c-.071.14-.271.464-.444.72a12.11 12.11 0 0 0-.559.931c-.135.256-.316.56-.403.677-.086.117-.405.593-.707 1.059-.815 1.254-.968 1.485-1.272 1.915-.7.991-1.06 1.476-1.338 1.8a6.383 6.383 0 0 0-.46.603c-.22.35-1.233 1.643-1.903 2.427-.305.357-.783.924-1.062 1.26-1.256 1.512-4.218 4.645-4.741 5.016-.235.166-.245.168-.132.014zm-57.406-54.512c-.02-.018-.55-.077-1.177-.132-.627-.055-1.16-.126-1.185-.158-.024-.032-.253-.07-.508-.084-.255-.014-.483-.056-.508-.093-.024-.038-.368-.094-.764-.126-.685-.055-1.136-.153-1.46-.316a.969.969 0 0 0-.363-.075c-.12 0-.32-.051-.446-.114s-.59-.206-1.033-.318c-.442-.111-.823-.222-.847-.246-.023-.024-.356-.148-.739-.276-.642-.213-1.635-.625-1.991-.825a7.183 7.183 0 0 0-.296-.156 24.52 24.52 0 0 1-.416-.212c-.147-.076-.323-.139-.393-.139s-.149-.06-.177-.132c-.028-.073-.089-.109-.136-.08-.047.03-.085.013-.085-.037 0-.05-.04-.09-.088-.09-.13 0-1.447-.754-1.68-.962-.143-.127-.214-.15-.24-.075-.064.18-.216.117-.168-.068.033-.125-.007-.195-.138-.247-.101-.04-.346-.23-.544-.419-.198-.19-.442-.345-.543-.345-.1 0-.159-.024-.13-.054.065-.065-.873-.956-1.01-.96-.053 0-.117-.081-.142-.178a.342.342 0 0 0-.22-.221c-.097-.025-.158-.074-.137-.108.022-.034-.027-.135-.106-.224-.08-.09-.291-.343-.47-.564-.178-.221-.359-.38-.402-.354-.043.026-.078-.025-.078-.115s-.077-.26-.17-.38a3.184 3.184 0 0 1-.318-.54c-.188-.415-.536-.983-.65-1.063-.05-.035-.06-.063-.025-.064.036 0 .009-.135-.06-.298-.067-.163-.096-.296-.064-.297.033 0 .016-.03-.036-.064-.155-.1-.453-1.443-.541-2.44-.075-.845-.062-1.899.045-3.725l.04-.685-.36-.256c-.215-.154-.435-.244-.55-.226-.11.018-.19-.014-.19-.075-.001-.109-.918-.74-1.075-.74-.048 0-.179-.073-.29-.16-.22-.172-.455-.317-1.386-.848a11.408 11.408 0 0 1-.879-.55 1.727 1.727 0 0 0-.526-.264 1.015 1.015 0 0 1-.434-.257c-.106-.113-.241-.205-.3-.206-.057 0-.105-.035-.105-.077 0-.041-.172-.126-.381-.188-.21-.062-.381-.142-.381-.178 0-.037-.06-.067-.132-.067-.073 0-.109-.038-.08-.084.029-.047-.002-.085-.07-.085-.066 0-.168-.057-.225-.126-.058-.07-.141-.104-.186-.076-.044.027-.132-.02-.195-.107-.063-.086-.138-.133-.167-.104-.028.029-.169-.057-.312-.19-.143-.134-.3-.244-.351-.244-.05 0-.173-.076-.273-.17l-.182-.17-.374.253c-.206.14-.422.254-.48.255-.058.001-.106.042-.106.091 0 .05-.038.066-.085.038-.046-.03-.084-.012-.084.037 0 .05-.05.09-.112.09s-.3.133-.53.296c-.228.163-.46.296-.515.296-.055 0-.112.03-.127.068-.016.037-.21.151-.43.254-.284.132-.403.237-.403.356 0 .093-.038.169-.085.169-.046 0-.085-.048-.086-.106 0-.072-.02-.076-.063-.014-.034.05-.243.18-.464.29-.222.11-.403.23-.403.268a.07.07 0 0 1-.07.07c-.133 0-2.085 1.212-2.167 1.345-.028.045-.16.105-.292.134-.133.03-.315.118-.404.197-.309.274-.967.695-1.085.695a.403.403 0 0 0-.234.116 2.086 2.086 0 0 1-.408.266c-.161.082-.312.176-.335.208-.023.032-.242.17-.487.305-.244.136-.444.276-.444.311 0 .035-.057.064-.127.064s-.127.037-.127.083c0 .046-.096.107-.212.136-.116.03-.212.087-.212.129 0 .041-.053.075-.118.075-.18 0-1.025.595-1.026.723-.002.18-.129.256-.21.125-.064-.104-.096-.103-.228.01a5.72 5.72 0 0 1-.64.405c-.268.15-.487.304-.487.341 0 .038-.106.09-.235.115-.13.026-.383.165-.564.309-.333.265-.579.282-.767.054-.047-.057-.247-.193-.445-.304-.198-.11-.36-.227-.36-.26s-.104-.086-.232-.118c-.127-.032-.251-.09-.275-.127-.024-.038-.424-.305-.89-.594-.465-.29-.903-.575-.973-.635a1.085 1.085 0 0 0-.326-.17 1.04 1.04 0 0 1-.36-.22c-.089-.09-.218-.162-.288-.162-.07 0-.127-.037-.127-.083 0-.045-.143-.156-.317-.245a2.011 2.011 0 0 1-.48-.34c-.15-.166-.151-.189-.02-.333a.593.593 0 0 0 .14-.339c0-.107.053-.184.127-.184.07 0 .127-.054.127-.12s.033-.132.074-.148c.07-.026.71-.96 1.057-1.542.087-.145.186-.283.22-.306.034-.024.088-.148.119-.276.031-.128.094-.232.14-.232a.084.084 0 0 0 .083-.085c0-.047.152-.223.338-.39.186-.168.32-.334.3-.368-.021-.034.092-.191.252-.35.16-.16.291-.328.293-.375 0-.048.145-.263.32-.48.174-.215.506-.634.736-.93.23-.294.544-.66.698-.811.154-.151.281-.304.283-.339 0-.035.163-.238.36-.452.196-.214.605-.67.907-1.016.303-.344 1.389-1.454 2.413-2.466 2.644-2.61 2.64-2.606 2.744-2.606.05 0 .093-.039.093-.085 0-.047.03-.085.068-.085.114 0 .863-.733.863-.845 0-.057.055-.083.123-.057.084.032.107.006.073-.082-.033-.086-.006-.12.08-.102.07.016.257-.087.413-.226a5.25 5.25 0 0 1 .531-.414 4 4 0 0 0 .531-.443c.156-.156.379-.307.494-.336.116-.03.21-.106.21-.171 0-.065.033-.118.072-.118.04 0 .182-.097.317-.216.136-.119.36-.267.5-.329.14-.061.374-.23.52-.376.145-.145.402-.322.57-.392.17-.07.307-.166.307-.212 0-.046.029-.074.064-.063.052.018.628-.371.783-.528.023-.024.183-.115.356-.202.172-.088.39-.23.483-.318.093-.087.192-.158.22-.158.027 0 .13-.076.23-.17.1-.092.243-.168.316-.168.074 0 .267-.106.429-.235.162-.13.4-.288.527-.353.128-.065.233-.15.233-.189 0-.038.054-.07.12-.07s.41-.172.764-.381c.355-.21.699-.381.764-.381.066 0 .143-.037.17-.082.029-.046.212-.154.408-.24.196-.088.408-.222.472-.299.064-.077.273-.182.466-.233.192-.051.416-.153.498-.225.081-.073.148-.103.148-.067 0 .036.13-.034.29-.156.16-.122.351-.222.424-.222.073 0 .133-.038.133-.085 0-.046.038-.084.085-.084.089 0 1.67-.657 1.82-.756.046-.03.237-.106.423-.168.186-.062.638-.26 1.004-.44.366-.179.804-.351.974-.382.17-.031.327-.084.35-.117.049-.07 1.115-.467 2.286-.852.443-.145.85-.302.907-.348.056-.047.14-.06.187-.032.048.03.248-.025.446-.12.197-.096.589-.211.87-.256.28-.046.523-.12.537-.164.015-.045.078-.062.139-.039.061.024.278-.03.481-.12.204-.09.732-.244 1.175-.344.442-.1 1.147-.26 1.566-.357 1.764-.405 4.867-.912 6.477-1.058.303-.028.76-.088 1.016-.133 1.15-.204 3.247-.316 5.969-.32 3.04-.004 4.981.085 6.308.29.442.069 1.337.184 1.99.257 1.4.157 1.404.157 2.328.326.395.072 1.161.209 1.701.303.54.095 1.372.27 1.848.387a53.32 53.32 0 0 0 1.467.34c.33.07.642.16.692.2.123.099 1.356.431 1.6.431a.7.7 0 0 1 .352.115.43.43 0 0 0 .313.075c.085-.022.155 0 .155.049s.09.072.199.053c.12-.022.276.03.393.131.106.093.417.214.69.27.272.057.496.13.496.164s.123.087.275.12c.231.048 1.047.35 1.714.634.093.04.265.097.381.127.335.087.678.245.678.312 0 .034.052.042.116.017.063-.024.256.05.427.167.171.116.453.255.625.31.172.054.63.247 1.018.429s.74.31.784.283c.043-.027.078-.016.078.024 0 .092 1.024.572 1.164.544.058-.012.106.028.106.089 0 .105.095.157.748.408.155.06.326.151.38.204.19.183.745.47.908.47.091 0 .165.034.165.076 0 .041.295.232.656.424.361.192 1.037.593 1.503.89.465.299.875.524.91.503.035-.022.064-.006.064.035 0 .153.697.528.98.528.16 0 .29.038.29.085 0 .046-.067.085-.149.085-.084 0 .016.099.233.229.21.125.587.373.84.55.252.176.505.32.562.32.056 0 .165.096.241.213.077.116.198.211.27.211.072 0 .183.048.247.106.063.058.232.201.374.318.143.116.375.316.517.444.141.128.276.233.3.233.05 0 .187.11.598.475.163.146.398.317.523.381.125.065.277.184.338.266.06.081.149.148.196.148.047 0 .181.114.299.254.117.14.245.254.282.254.038 0 .197.124.353.275.445.43 1.174 1.031 1.329 1.095.077.031.116.06.087.063-.093.01 1.415 1.446 1.519 1.446.055 0 .1.039.1.087 0 .124 1.543 1.69 1.665 1.69.056 0 .123.067.15.149.026.081.39.5.81.931.419.431.762.816.762.857 0 .04.21.29.465.557.256.267.466.517.466.556 0 .039.095.146.212.237.116.092.211.189.211.215 0 .027.305.428.678.89.372.464.677.865.677.892 0 .051.166.26.49.615.106.117.258.314.338.438.167.26.174.27.566.776.163.21.359.526.436.705.082.188.228.357.35.403.153.058.198.125.166.248-.025.092.006.196.067.231.062.035.201.224.31.42.109.196.35.577.534.846.185.27.346.548.356.619.011.07-.121.222-.294.338-.172.115-.333.23-.356.253-.065.066-.443.238-.656.297a1.44 1.44 0 0 0-.424.25c-.128.107-.413.28-.634.384-.222.104-.402.22-.402.257 0 .038-.109.093-.24.122-.133.029-.441.184-.686.345-.244.161-.49.293-.548.293-.057 0-.185.076-.285.17-.1.092-.223.169-.274.169-.051 0-.243.085-.426.19-.319.182-.343.184-.567.048a15.799 15.799 0 0 0-.7-.387 13.455 13.455 0 0 1-.88-.51c-.228-.147-.447-.247-.487-.223-.04.025-.073-.005-.073-.066 0-.092-.628-.43-.706-.38-.014.008-.095-.055-.18-.14-.247-.247-.806-.576-1.05-.618-.122-.021-.26-.084-.308-.14-.142-.17-.564-.44-1.078-.69-.268-.13-.487-.27-.487-.312 0-.04-.04-.074-.088-.074-.115 0-1.454-.752-1.563-.878-.047-.053-.294-.204-.55-.334a22.32 22.32 0 0 1-1.101-.62c-.35-.21-.75-.439-.89-.508a5.898 5.898 0 0 1-.848-.503c-.28-.196-.81-.426-.908-.395-.035.011-.063-.033-.063-.098 0-.122-.593-.474-.798-.474-.064 0-.14-.063-.169-.14-.03-.076-.076-.116-.104-.088-.028.028-.17-.037-.316-.144-.487-.358-1.665-.99-1.748-.94-.046.029-.083-.008-.083-.081 0-.08-.185-.215-.463-.338-.254-.113-.54-.277-.634-.365-.095-.088-.353-.245-.575-.35a14.937 14.937 0 0 1-.571-.282c-.521-.285-.532-.292-.863-.574a.797.797 0 0 0-.194-.134c-.236-.037-.51-.154-.51-.22 0-.044-.038-.056-.084-.027-.047.028-.085.02-.085-.02 0-.087-.904-.644-1.09-.671-.075-.011-.148-.06-.165-.11-.016-.048-.062-.088-.103-.088-.04 0-.246-.117-.457-.26-.212-.143-.425-.234-.475-.204-.05.03-.154-.016-.233-.104-.244-.271-1.545-1.026-1.687-.978-.052.017-.119-.047-.149-.143-.03-.096-.129-.179-.219-.185-.343-.022-.375-.035-.375-.151 0-.066-.114-.158-.254-.204-.14-.045-.273-.107-.297-.137-.093-.12-1.534-.936-1.652-.936-.069 0-.126-.032-.126-.07 0-.12-.706-.539-.987-.584-.174-.028-.283-.103-.312-.212-.024-.092-.08-.145-.123-.119-.043.027-.143-.022-.222-.109-.078-.086-.36-.26-.625-.383-.59-.277-1.476-.804-1.56-.93-.035-.05-.063-.063-.064-.029 0 .034-.125-.013-.276-.105-.152-.093-.325-.168-.385-.168s-.213-.1-.339-.22a1.636 1.636 0 0 0-.462-.305c-.128-.047-.233-.122-.233-.166 0-.045-.035-.06-.077-.034-.043.027-.129-.002-.19-.063-.063-.062-.323-.224-.58-.36-.255-.138-.477-.278-.493-.313-.016-.035-.1-.064-.186-.064-.087 0-.26-.095-.386-.211-.126-.117-.279-.212-.34-.212-.06 0-.14-.049-.177-.108-.038-.06-.23-.18-.428-.267-.198-.087-.36-.191-.36-.23 0-.04-.066-.072-.148-.073-.081 0-.26-.095-.395-.212a1.894 1.894 0 0 0-.58-.312c-.184-.055-.354-.152-.378-.215-.024-.064-.258-.228-.52-.366a31.782 31.782 0 0 1-.771-.42c-.163-.092-.363-.168-.445-.168-.082 0-.15-.055-.15-.123 0-.067-.142-.185-.317-.26a4.537 4.537 0 0 1-.444-.219 1.544 1.544 0 0 0-.276-.13c-.081-.027-.148-.082-.148-.12 0-.1-.703-.502-.875-.502-.077 0-.14-.034-.14-.075 0-.04-.106-.126-.234-.19a20.86 20.86 0 0 1-.84-.477c-.334-.197-.648-.36-.698-.36-.05 0-.092-.034-.092-.077s-.285-.221-.635-.396c-.349-.175-.635-.35-.635-.388 0-.038-.052-.07-.116-.07s-.164-.056-.221-.125c-.058-.07-.139-.106-.18-.08-.041.025-.075.008-.075-.038s-.079-.109-.175-.14c-.292-.092-1.35-.726-1.35-.81 0-.042-.094-.076-.21-.076-.117 0-.213-.033-.213-.072 0-.04-.152-.14-.338-.225-.186-.084-.339-.184-.339-.222 0-.038-.057-.047-.127-.02s-.127.102-.127.167c0 .064-.073.118-.163.118-.208 0-1.145.49-1.417.74-.114.105-.264.19-.335.19-.204 0-.465.17-.407.265.03.047-.001.074-.067.06-.15-.034-.738.26-.923.46a.508.508 0 0 1-.322.147c-.102 0-.165.034-.14.076.027.041-.047.1-.163.128-.117.03-.212.09-.212.137 0 .045-.063.083-.14.083-.077 0-.258.085-.402.19a6.512 6.512 0 0 1-.664.4c-.221.116-.402.24-.402.276 0 .036-.07.065-.154.065-.084 0-.235.076-.335.17-.1.092-.222.169-.272.169-.186 0-1.152.554-1.365.783a.5.5 0 0 1-.312.148c-.184 0-.44.206-.44.354 0 .048-.048.07-.107.048-.058-.021-.22.03-.36.113-.14.083-.416.233-.614.334-.198.1-.341.212-.318.25.023.036-.124.108-.327.16-.202.05-.416.15-.475.22-.059.072-.156.13-.217.13s-.163.052-.227.115a.884.884 0 0 1-.302.175c-.103.033-.187.095-.187.139 0 .043-.076.079-.169.079-.093 0-.17.034-.17.076 0 .042-.17.147-.38.233-.21.086-.38.185-.38.22-.001.035-.058.063-.128.063a.127.127 0 0 0-.127.127c0 .07-.061.127-.135.127-.145 0-.635.25-.721.367a.192.192 0 0 1-.127.074c-.173.007-.443.152-.82.44-.22.167-.438.305-.484.305-.15 0-.088.16.101.262.102.055.262.17.355.257.093.087.2.158.239.158.038 0 .227.114.42.254.193.14.392.255.444.255.05.001.188.103.304.226.117.123.365.295.55.382.187.088.51.289.72.447.21.158.43.29.487.293.059.003.106.034.106.07 0 .034.21.176.466.314s.465.285.465.326c0 .042.096.052.212.023.155-.039.212-.02.212.072 0 .07.073.165.163.213.089.048.213.135.275.193.062.059.226.164.366.234.14.07.278.16.308.2.065.09 1.494-.102 1.56-.209.026-.042.176-.076.333-.076.158 0 .308-.033.333-.074.025-.041.265-.095.534-.12.268-.024.831-.084 1.25-.134.42-.049 1.029-.104 1.355-.123.326-.018.669-.067.762-.109.252-.111 5.745-.096 5.892.016.066.05.348.099.627.107.28.009.794.054 1.143.1.35.046.807.104 1.016.13.455.055 1.027.21 1.139.307.044.038.163.07.264.07.102 0 .351.059.555.132.204.072.475.135.603.14.128.004.233.03.234.058 0 .028.142.058.315.067.174.01.33.057.346.106.016.05.065.069.108.042.043-.027.134.008.203.076.068.069.287.152.486.186.199.033.38.085.404.115.023.03.442.223.931.428.49.205.98.442 1.09.526.11.084.234.132.275.107.04-.025.074-.013.074.027s.134.12.297.18c.163.058.296.14.296.18 0 .04.086.1.19.134.244.076 1.416.861 1.603 1.072.078.088.173.164.212.168.23.026.366.1.407.223.026.076.184.234.351.35.384.268 1.437 1.325 1.617 1.624.075.124.216.269.315.322.098.052.23.213.294.358.156.35.357.541.537.507.161-.032.205.12.05.171-.103.034.303.73.498.854.059.037.107.144.107.238 0 .186.149.511.27.59.043.028.083.133.09.234.009.1.047.183.086.183.04 0 .05.035.024.077-.027.043.003.13.065.192s.099.157.08.21a.138.138 0 0 0 .058.153c.049.03.089.14.089.245 0 .104.032.226.072.27.076.084.178.455.397 1.435.182.817.23 3.027.083 3.895-.164.98-.377 1.729-.6 2.116a2.302 2.302 0 0 0-.236.55c-.054.288-.146.509-.212.509-.03 0-.207.293-.393.652-.362.697-.483.878-.783 1.17-.105.103-.19.218-.19.256 0 .087-.676.903-.823.995-.06.037-.11.1-.11.138 0 .091-.54.642-1.019 1.037-.207.172-.492.414-.631.538-.14.125-.34.26-.445.3-.105.04-.19.125-.19.187 0 .063-.124.18-.275.26-.573.303-1.19.697-1.387.886-.064.062-.117.08-.119.042 0-.038-.049-.01-.106.061-.056.072-.28.198-.498.28-.218.082-.442.204-.498.272-.056.067-.14.122-.187.122-.047 0-.147.068-.222.152a.618.618 0 0 1-.363.168 1.456 1.456 0 0 0-.51.184 4.442 4.442 0 0 1-.644.294c-.198.07-.482.183-.633.25-.22.1-1.974.683-2.305.768a2.125 2.125 0 0 0-.212.072c-.298.12-.903.244-1.386.285-.285.024-.532.078-.547.12-.016.043-.137.078-.27.078s-.264.036-.291.08c-.027.043-.191.078-.365.077-.174-.001-.824.058-1.446.132-1.015.12-5.499.202-5.608.102z" transform="translate(-4.685 -9.705)"/></svg>