<?xml version="1.0" encoding="UTF-8" standalone="no"?>
<svg
   xmlns:dc="http://purl.org/dc/elements/1.1/"
   xmlns:cc="http://creativecommons.org/ns#"
   xmlns:rdf="http://www.w3.org/1999/02/22-rdf-syntax-ns#"
   xmlns:svg="http://www.w3.org/2000/svg"
   xmlns="http://www.w3.org/2000/svg"
   xmlns:sodipodi="http://sodipodi.sourceforge.net/DTD/sodipodi-0.dtd"
   xmlns:inkscape="http://www.inkscape.org/namespaces/inkscape"
   sodipodi:docname="librejs.svg"
   inkscape:version="1.0 (4035a4fb49, 2020-05-01)"
   id="svg8"
   version="1.1"
   viewBox="0 0 96.179291 46.301239"
   height="46.301239mm"
   width="96.179291mm">
  <defs
     id="defs2" />
  <sodipodi:namedview
     fit-margin-bottom="2"
     fit-margin-right="2"
     fit-margin-left="2"
     fit-margin-top="2"
     inkscape:window-maximized="1"
     inkscape:window-y="-8"
     inkscape:window-x="-8"
     inkscape:window-height="1017"
     inkscape:window-width="1920"
     inkscape:guide-bbox="true"
     showguides="true"
     showgrid="false"
     inkscape:document-rotation="0"
     inkscape:current-layer="layer1"
     inkscape:document-units="mm"
     inkscape:cy="86.434541"
     inkscape:cx="137.22237"
     inkscape:zoom="2.8"
     inkscape:pageshadow="2"
     inkscape:pageopacity="0.0"
     borderopacity="1.0"
     bordercolor="#666666"
     pagecolor="#ffffff"
     id="base" />
  <metadata
     id="metadata5">
    <rdf:RDF>
      <cc:Work
         rdf:about="">
        <dc:format>image/svg+xml</dc:format>
        <dc:type
           rdf:resource="http://purl.org/dc/dcmitype/StillImage" />
        <dc:title></dc:title>
      </cc:Work>
    </rdf:RDF>
  </metadata>
  <g
     transform="translate(-24.050789,-21.34003)"
     id="layer1"
     inkscape:groupmode="layer"
     inkscape:label="Livello 1">
    <g
       id="g949" />
    <g
       id="g1189" />
    <g
       id="g1429">
      <g
         aria-label="Free JavaScript in your browser"
         id="text894"
         style="font-style:normal;font-weight:normal;font-size:5.64444px;line-height:1.25;font-family:sans-serif;letter-spacing:0.015875px;word-spacing:0px;fill:#000000;fill-opacity:1;stroke:none;stroke-width:0.264583">
        <path
           d="m 29.22407,60.414514 h 3.375376 v 1.247421 H 31.60038 V 61.15958 h -0.852311 v 0.982133 h 1.072444 v 0.75071 h -1.072444 v 0.716844 h 0.575733 v 0.750711 H 29.22407 v -0.750711 h 0.349956 V 61.15958 H 29.22407 Z"
           style="font-style:normal;font-variant:normal;font-weight:normal;font-stretch:normal;font-size:5.64444px;font-family:'ChunkFive Ex';-inkscape-font-specification:'ChunkFive Ex';stroke-width:0.264583"
           id="path1009" />
        <path
           d="m 34.100514,64.359978 h -1.597377 v -0.739422 h 0.248356 v -1.349021 h -0.242711 v -0.733777 h 1.061154 l 0.169334,0.361244 q 0.05644,-0.1016 0.118533,-0.191911 0.06209,-0.09031 0.158044,-0.158044 0.09596,-0.07338 0.237067,-0.112889 0.141111,-0.03951 0.361244,-0.03951 v 1.015999 q -0.383822,0 -0.592666,0.129822 -0.2032,0.124178 -0.2032,0.496711 v 0.581377 h 0.282222 z"
           style="font-style:normal;font-variant:normal;font-weight:normal;font-stretch:normal;font-size:5.64444px;font-family:'ChunkFive Ex';-inkscape-font-specification:'ChunkFive Ex';stroke-width:0.264583"
           id="path1011" />
        <path
           d="m 37.689672,63.970511 q -0.316089,0.270933 -0.666044,0.383822 -0.349955,0.107245 -0.790221,0.107245 -0.265289,0 -0.530578,-0.09031 -0.265289,-0.08467 -0.479777,-0.265289 -0.208845,-0.186267 -0.344311,-0.474133 -0.135467,-0.293511 -0.135467,-0.699911 0,-0.34431 0.118534,-0.615244 0.118533,-0.276577 0.321733,-0.468488 0.2032,-0.191911 0.479777,-0.287867 0.276578,-0.1016 0.598311,-0.1016 0.349955,0 0.615244,0.1016 0.270933,0.1016 0.451555,0.282222 0.180622,0.180622 0.270933,0.428978 0.09031,0.242711 0.09031,0.530577 0,0.112889 -0.01693,0.225778 -0.01693,0.107244 -0.0508,0.2032 H 35.84394 q 0.01129,0.05644 0.03387,0.135466 0.02822,0.07902 0.09031,0.1524 0.06209,0.07338 0.169333,0.124178 0.107244,0.0508 0.287867,0.0508 0.07338,0 0.158044,-0.0056 0.09031,-0.0056 0.191911,-0.03387 0.1016,-0.02822 0.214489,-0.07902 0.112888,-0.05644 0.225777,-0.1524 z m -1.394177,-1.749776 q -0.129822,0 -0.214488,0.0508 -0.07902,0.0508 -0.129822,0.124178 -0.04516,0.06773 -0.06773,0.146755 -0.01693,0.07902 -0.02258,0.129822 h 0.852311 q 0,-0.07902 -0.01693,-0.158044 -0.01693,-0.08467 -0.06209,-0.146756 -0.03951,-0.06773 -0.124178,-0.107244 -0.07902,-0.03951 -0.214489,-0.03951 z"
           style="font-style:normal;font-variant:normal;font-weight:normal;font-stretch:normal;font-size:5.64444px;font-family:'ChunkFive Ex';-inkscape-font-specification:'ChunkFive Ex';stroke-width:0.264583"
           id="path1013" />
        <path
           d="m 40.770302,63.970511 q -0.316089,0.270933 -0.666044,0.383822 -0.349955,0.107245 -0.790222,0.107245 -0.265288,0 -0.530577,-0.09031 -0.265289,-0.08467 -0.479777,-0.265289 -0.208845,-0.186267 -0.344311,-0.474133 -0.135467,-0.293511 -0.135467,-0.699911 0,-0.34431 0.118533,-0.615244 0.118534,-0.276577 0.321733,-0.468488 0.2032,-0.191911 0.479778,-0.287867 0.276577,-0.1016 0.598311,-0.1016 0.349955,0 0.615244,0.1016 0.270933,0.1016 0.451555,0.282222 0.180622,0.180622 0.270933,0.428978 0.09031,0.242711 0.09031,0.530577 0,0.112889 -0.01693,0.225778 -0.01693,0.107244 -0.0508,0.2032 H 38.92457 q 0.01129,0.05644 0.03387,0.135466 0.02822,0.07902 0.09031,0.1524 0.06209,0.07338 0.169333,0.124178 0.107244,0.0508 0.287866,0.0508 0.07338,0 0.158045,-0.0056 0.09031,-0.0056 0.191911,-0.03387 0.1016,-0.02822 0.214488,-0.07902 0.112889,-0.05644 0.225778,-0.1524 z m -1.394177,-1.749776 q -0.129822,0 -0.214489,0.0508 -0.07902,0.0508 -0.129822,0.124178 -0.04515,0.06773 -0.06773,0.146755 -0.01693,0.07902 -0.02258,0.129822 h 0.852311 q 0,-0.07902 -0.01693,-0.158044 -0.01693,-0.08467 -0.06209,-0.146756 -0.03951,-0.06773 -0.124178,-0.107244 -0.07902,-0.03951 -0.214489,-0.03951 z"
           style="font-style:normal;font-variant:normal;font-weight:normal;font-stretch:normal;font-size:5.64444px;font-family:'ChunkFive Ex';-inkscape-font-specification:'ChunkFive Ex';stroke-width:0.264583"
           id="path1015" />
        <path
           d="m 42.416186,64.704289 q 0.107244,0.0508 0.254,0.0508 0.208844,0 0.338666,-0.180623 0.129822,-0.180622 0.129822,-0.632177 v -2.788353 h -0.485422 v -0.739422 h 2.12231 v 0.739422 h -0.468489 v 2.788353 q 0,0.372533 -0.08467,0.666044 -0.08467,0.293511 -0.276578,0.491066 -0.186266,0.2032 -0.491066,0.3048 -0.3048,0.107245 -0.739422,0.107245 -0.07902,0 -0.158044,-0.01693 -0.07338,-0.01693 -0.135467,-0.04516 z"
           style="font-style:normal;font-variant:normal;font-weight:normal;font-stretch:normal;font-size:5.64444px;font-family:'ChunkFive Ex';-inkscape-font-specification:'ChunkFive Ex';stroke-width:0.264583"
           id="path1017" />
        <path
           d="m 45.13513,61.774824 q 0.08467,-0.0508 0.214489,-0.118533 0.129822,-0.06773 0.287867,-0.129822 0.163688,-0.06773 0.34431,-0.107245 0.186267,-0.04516 0.383822,-0.04516 0.254,0 0.524933,0.05644 0.270933,0.0508 0.491067,0.186267 0.225777,0.129822 0.366888,0.3556 0.146756,0.225777 0.146756,0.564444 v 1.100665 h 0.338666 v 0.722489 h -1.20791 l -0.135467,-0.254 q -0.07902,0.107244 -0.180622,0.180622 -0.09596,0.06773 -0.2032,0.107244 -0.1016,0.03951 -0.203199,0.05644 -0.1016,0.01693 -0.174978,0.01693 -0.2032,0 -0.400755,-0.05644 -0.197556,-0.05644 -0.3556,-0.169334 -0.158044,-0.112888 -0.259644,-0.287866 -0.09596,-0.180622 -0.09596,-0.428977 0,-0.237067 0.09031,-0.428978 0.09596,-0.191911 0.254,-0.327377 0.163689,-0.135467 0.378177,-0.208845 0.214489,-0.07338 0.451556,-0.07338 0.124177,0 0.220133,0.02822 0.1016,0.02258 0.169333,0.05644 0.07338,0.03387 0.112889,0.06773 0.04516,0.03387 0.05644,0.04516 v -0.197555 q 0,-0.191911 -0.1524,-0.254 -0.152399,-0.06209 -0.383822,-0.06209 -0.253999,0 -0.468488,0.08467 -0.208844,0.08467 -0.372533,0.174977 z m 1.253066,1.958621 q 0.129822,0 0.225778,-0.06209 0.09596,-0.06209 0.135466,-0.124178 V 63.33269 Q 46.74384,63.3214 46.72122,63.29882 46.70429,63.2706 46.66478,63.24238 46.62527,63.21416 46.56318,63.19158 46.50674,63.169 46.416424,63.169 q -0.169333,0 -0.248355,0.08467 -0.07902,0.08467 -0.07902,0.214489 0,0.118533 0.08467,0.191911 0.08467,0.07338 0.214489,0.07338 z"
           style="font-style:normal;font-variant:normal;font-weight:normal;font-stretch:normal;font-size:5.64444px;font-family:'ChunkFive Ex';-inkscape-font-specification:'ChunkFive Ex';stroke-width:0.264583"
           id="path1019" />
        <path
           d="m 50.194929,63.445578 q 0,-0.04515 0.01129,-0.112888 0.01693,-0.07338 0.03951,-0.158045 0.02258,-0.08467 0.0508,-0.174977 0.03387,-0.09031 0.06773,-0.174978 l 0.270934,-0.570088 H 50.33604 v -0.716844 h 1.456266 v 0.716844 h -0.293511 l -0.976488,2.105376 h -0.874888 l -1.049866,-2.105376 h -0.265289 v -0.716844 h 1.71591 v 0.716844 h -0.282222 l 0.259644,0.59831 q 0.05644,0.163689 0.09595,0.333022 0.03951,0.169333 0.0508,0.259644 z"
           style="font-style:normal;font-variant:normal;font-weight:normal;font-stretch:normal;font-size:5.64444px;font-family:'ChunkFive Ex';-inkscape-font-specification:'ChunkFive Ex';stroke-width:0.264583"
           id="path1021" />
        <path
           d="m 52.012969,61.774824 q 0.08467,-0.0508 0.214488,-0.118533 0.129822,-0.06773 0.287867,-0.129822 0.163688,-0.06773 0.344311,-0.107245 0.186266,-0.04516 0.383821,-0.04516 0.254,0 0.524933,0.05644 0.270934,0.0508 0.491067,0.186267 0.225777,0.129822 0.366888,0.3556 0.146756,0.225777 0.146756,0.564444 v 1.100665 h 0.338666 v 0.722489 h -1.20791 l -0.135467,-0.254 q -0.07902,0.107244 -0.180622,0.180622 -0.09595,0.06773 -0.2032,0.107244 -0.101599,0.03951 -0.203199,0.05644 -0.1016,0.01693 -0.174978,0.01693 -0.2032,0 -0.400755,-0.05644 -0.197556,-0.05644 -0.3556,-0.169334 -0.158044,-0.112888 -0.259644,-0.287866 -0.09596,-0.180622 -0.09596,-0.428977 0,-0.237067 0.09031,-0.428978 0.09596,-0.191911 0.254,-0.327377 0.163689,-0.135467 0.378178,-0.208845 0.214488,-0.07338 0.451555,-0.07338 0.124178,0 0.220133,0.02822 0.1016,0.02258 0.169333,0.05644 0.07338,0.03387 0.112889,0.06773 0.04516,0.03387 0.05644,0.04516 v -0.197555 q 0,-0.191911 -0.152399,-0.254 -0.1524,-0.06209 -0.383822,-0.06209 -0.254,0 -0.468489,0.08467 -0.208844,0.08467 -0.372533,0.174977 z m 1.253065,1.958621 q 0.129822,0 0.225778,-0.06209 0.09595,-0.06209 0.135466,-0.124178 V 63.33269 q -0.0056,-0.01129 -0.02822,-0.03387 -0.01693,-0.02822 -0.05644,-0.05644 -0.03951,-0.02822 -0.1016,-0.0508 -0.05645,-0.02258 -0.146756,-0.02258 -0.169333,0 -0.248355,0.08467 -0.07902,0.08467 -0.07902,0.214489 0,0.118533 0.08467,0.191911 0.08467,0.07338 0.214488,0.07338 z"
           style="font-style:normal;font-variant:normal;font-weight:normal;font-stretch:normal;font-size:5.64444px;font-family:'ChunkFive Ex';-inkscape-font-specification:'ChunkFive Ex';stroke-width:0.264583"
           id="path1023" />
        <path
           d="m 55.351215,64.359978 v -1.422399 h 1.049866 q 0,0.174977 0.07902,0.287866 0.07902,0.107245 0.186267,0.169333 0.112888,0.06209 0.231422,0.08467 0.124177,0.02258 0.214488,0.02258 0.07338,0 0.158045,-0.01129 0.08467,-0.01129 0.1524,-0.03951 0.07338,-0.03387 0.118533,-0.08467 0.0508,-0.05644 0.0508,-0.146755 0,-0.107245 -0.163689,-0.174978 -0.158044,-0.07338 -0.400755,-0.141111 -0.237067,-0.06773 -0.519289,-0.1524 -0.282222,-0.09031 -0.524933,-0.242711 -0.237066,-0.1524 -0.400755,-0.383822 -0.158044,-0.237066 -0.158044,-0.59831 0,-0.310444 0.129822,-0.541867 0.135466,-0.231422 0.333022,-0.378177 0.2032,-0.146755 0.434622,-0.220133 0.237066,-0.07338 0.44591,-0.07338 0.174978,0 0.349956,0.03387 0.174977,0.02822 0.333022,0.09595 0.158044,0.06773 0.282222,0.180622 0.129822,0.107245 0.214488,0.265289 l 0.05645,-0.474133 h 0.970844 v 1.416755 h -1.021644 q 0,-0.158045 -0.05644,-0.276578 -0.05645,-0.124178 -0.158045,-0.208844 -0.09596,-0.08467 -0.231422,-0.124178 -0.129822,-0.04516 -0.276577,-0.04516 -0.06209,0 -0.129823,0.02258 -0.06773,0.01693 -0.129822,0.05644 -0.05644,0.03387 -0.09596,0.09031 -0.03387,0.05644 -0.03387,0.129822 0,0.146755 0.163689,0.242711 0.169333,0.09595 0.417689,0.180622 0.248355,0.08467 0.536221,0.186266 0.287867,0.09596 0.536222,0.242711 0.248356,0.146756 0.412044,0.366889 0.169334,0.220133 0.169334,0.553155 0,0.333022 -0.141111,0.5588 -0.135467,0.225777 -0.3556,0.372533 -0.214489,0.141111 -0.479778,0.203199 -0.265288,0.06209 -0.519288,0.06209 -0.214489,0 -0.395111,-0.04515 -0.180622,-0.04516 -0.327377,-0.118533 -0.146756,-0.07338 -0.265289,-0.163689 -0.112889,-0.09596 -0.191911,-0.191911 l -0.06209,0.434622 z"
           style="font-style:normal;font-variant:normal;font-weight:normal;font-stretch:normal;font-size:5.64444px;font-family:'ChunkFive Ex';-inkscape-font-specification:'ChunkFive Ex';stroke-width:0.264583"
           id="path1025" />
        <path
           d="m 61.270821,62.813401 q -0.0056,-0.1016 -0.02822,-0.2032 -0.01693,-0.107244 -0.05644,-0.191911 -0.03951,-0.09031 -0.107245,-0.141111 -0.06773,-0.05644 -0.163688,-0.05644 -0.124178,0 -0.220133,0.06209 -0.09031,0.06209 -0.1524,0.163689 -0.06209,0.101599 -0.09596,0.231422 -0.02822,0.129822 -0.02822,0.265288 0,0.287867 0.158044,0.479778 0.158045,0.186266 0.440267,0.186266 0.214488,0 0.372533,-0.08467 0.158044,-0.09031 0.293511,-0.237067 l 0.49671,0.575733 q -0.1016,0.107244 -0.242711,0.214489 -0.141111,0.1016 -0.321733,0.180622 -0.174977,0.07902 -0.383822,0.129822 -0.208844,0.0508 -0.434622,0.0508 -0.310444,0 -0.592666,-0.09031 -0.282222,-0.09596 -0.496711,-0.282222 -0.208844,-0.191911 -0.338666,-0.474133 -0.124178,-0.282222 -0.124178,-0.6604 0,-0.372533 0.112889,-0.643466 0.118533,-0.276577 0.310444,-0.451555 0.191911,-0.180622 0.440267,-0.265289 0.254,-0.08467 0.524933,-0.08467 0.141111,0 0.253999,0.03387 0.118534,0.03387 0.2032,0.08467 0.09031,0.0508 0.1524,0.107244 0.06209,0.05644 0.09596,0.09596 l 0.09596,-0.270933 h 0.666044 v 1.275643 z"
           style="font-style:normal;font-variant:normal;font-weight:normal;font-stretch:normal;font-size:5.64444px;font-family:'ChunkFive Ex';-inkscape-font-specification:'ChunkFive Ex';stroke-width:0.264583"
           id="path1027" />
        <path
           d="m 63.991795,64.359978 h -1.597377 v -0.739422 h 0.248356 v -1.349021 h -0.242711 v -0.733777 h 1.061155 l 0.169333,0.361244 q 0.05644,-0.1016 0.118533,-0.191911 0.06209,-0.09031 0.158044,-0.158044 0.09596,-0.07338 0.237067,-0.112889 0.141111,-0.03951 0.361244,-0.03951 v 1.015999 q -0.383822,0 -0.592666,0.129822 -0.2032,0.124178 -0.2032,0.496711 v 0.581377 h 0.282222 z"
           style="font-style:normal;font-variant:normal;font-weight:normal;font-stretch:normal;font-size:5.64444px;font-family:'ChunkFive Ex';-inkscape-font-specification:'ChunkFive Ex';stroke-width:0.264583"
           id="path1029" />
        <path
           d="m 66.327885,64.359978 h -1.580443 v -0.739422 h 0.237066 v -1.349021 h -0.237066 v -0.733777 h 1.30951 v 2.082798 h 0.270933 z m -1.422399,-3.646309 q 0,-0.09596 0.03951,-0.197555 0.03951,-0.1016 0.112889,-0.186267 0.07902,-0.08467 0.191911,-0.135466 0.118533,-0.05644 0.265289,-0.05644 0.146755,0 0.259644,0.05644 0.118533,0.0508 0.197555,0.135466 0.07902,0.08467 0.118534,0.186267 0.04516,0.1016 0.04516,0.197555 0,0.237067 -0.158044,0.4064 -0.158044,0.163689 -0.462844,0.163689 -0.135467,0 -0.248356,-0.0508 -0.107244,-0.0508 -0.191911,-0.129822 -0.07902,-0.08467 -0.124177,-0.186267 -0.04516,-0.1016 -0.04516,-0.2032 z"
           style="font-style:normal;font-variant:normal;font-weight:normal;font-stretch:normal;font-size:5.64444px;font-family:'ChunkFive Ex';-inkscape-font-specification:'ChunkFive Ex';stroke-width:0.264583"
           id="path1031" />
        <path
           d="m 68.816467,62.982734 q 0,-0.124177 -0.02822,-0.248355 -0.02822,-0.129822 -0.08467,-0.225778 -0.0508,-0.09595 -0.129822,-0.158044 -0.07338,-0.06209 -0.163688,-0.06209 -0.158045,0 -0.282222,0.174978 -0.118534,0.174977 -0.118534,0.479777 0,0.158045 0.02822,0.293511 0.02822,0.135467 0.07902,0.237067 0.05644,0.1016 0.129822,0.158044 0.07902,0.05644 0.169333,0.05644 0.180622,0 0.287866,-0.191911 0.112889,-0.191911 0.112889,-0.513644 z m -2.190043,1.789288 h 0.237067 v -2.483554 h -0.237067 v -0.75071 h 1.292577 l 0.09596,0.197555 q 0.03951,-0.02822 0.1016,-0.06773 0.06773,-0.04516 0.1524,-0.07902 0.08467,-0.03951 0.19191,-0.06773 0.107245,-0.02822 0.237067,-0.02822 0.327377,0 0.575733,0.118533 0.254,0.118534 0.417688,0.321733 0.169334,0.2032 0.254,0.474133 0.08467,0.265289 0.08467,0.564444 0,0.338667 -0.1016,0.6096 -0.09596,0.265289 -0.270933,0.451555 -0.169333,0.186267 -0.4064,0.287867 -0.237066,0.1016 -0.508,0.1016 -0.174977,0 -0.310444,-0.02822 -0.129822,-0.02822 -0.220133,-0.06773 -0.08467,-0.03951 -0.135466,-0.07338 -0.0508,-0.03951 -0.06773,-0.0508 v 0.570089 h 0.3048 v 0.739422 h -1.687688 z"
           style="font-style:normal;font-variant:normal;font-weight:normal;font-stretch:normal;font-size:5.64444px;font-family:'ChunkFive Ex';-inkscape-font-specification:'ChunkFive Ex';stroke-width:0.264583"
           id="path1033" />
        <path
           d="m 70.190799,61.537758 h 0.3048 v -0.519289 l 1.038577,-0.333022 v 0.852311 h 0.536222 v 0.733777 h -0.536222 v 1.00471 q 0,0.03951 -0.0056,0.07902 0,0.03951 0,0.08467 0,0.112889 0.02822,0.2032 0.03387,0.08467 0.158044,0.08467 0.05644,0 0.163689,-0.02822 0.112889,-0.03387 0.191911,-0.06773 v 0.722488 q -0.06209,0.02822 -0.158045,0.04516 -0.09595,0.02258 -0.197555,0.03387 -0.1016,0.01129 -0.191911,0.01693 -0.08467,0.01129 -0.135467,0.01129 -0.316088,0 -0.49671,-0.08467 -0.174978,-0.08467 -0.259645,-0.237066 -0.08467,-0.1524 -0.107244,-0.372533 -0.02258,-0.220134 -0.02822,-0.491067 v -1.00471 h -0.3048 z"
           style="font-style:normal;font-variant:normal;font-weight:normal;font-stretch:normal;font-size:5.64444px;font-family:'ChunkFive Ex';-inkscape-font-specification:'ChunkFive Ex';stroke-width:0.264583"
           id="path1035" />
        <path
           d="m 75.321068,64.359978 h -1.580443 v -0.739422 h 0.237066 v -1.349021 h -0.237066 v -0.733777 h 1.30951 v 2.082798 h 0.270933 z m -1.422399,-3.646309 q 0,-0.09596 0.03951,-0.197555 0.03951,-0.1016 0.112889,-0.186267 0.07902,-0.08467 0.191911,-0.135466 0.118533,-0.05644 0.265289,-0.05644 0.146755,0 0.259644,0.05644 0.118533,0.0508 0.197556,0.135466 0.07902,0.08467 0.118533,0.186267 0.04516,0.1016 0.04516,0.197555 0,0.237067 -0.158044,0.4064 -0.158044,0.163689 -0.462844,0.163689 -0.135467,0 -0.248355,-0.0508 -0.107245,-0.0508 -0.191911,-0.129822 -0.07902,-0.08467 -0.124178,-0.186267 -0.04516,-0.1016 -0.04516,-0.2032 z"
           style="font-style:normal;font-variant:normal;font-weight:normal;font-stretch:normal;font-size:5.64444px;font-family:'ChunkFive Ex';-inkscape-font-specification:'ChunkFive Ex';stroke-width:0.264583"
           id="path1037" />
        <path
           d="m 77.358091,64.359978 h -1.738487 v -0.739422 h 0.237066 v -1.349021 h -0.237066 v -0.733777 h 1.202265 l 0.129823,0.349955 q 0.146755,-0.197555 0.338666,-0.321733 0.197555,-0.129822 0.468489,-0.129822 0.327377,0 0.524933,0.112889 0.203199,0.107244 0.310444,0.287866 0.112889,0.174978 0.146755,0.400755 0.03951,0.220133 0.03951,0.440267 v 0.942621 h 0.265289 v 0.739422 H 77.62338 v -1.540932 q 0,-0.07338 -0.0056,-0.163689 0,-0.09031 -0.02822,-0.169333 -0.02822,-0.07902 -0.09596,-0.135467 -0.06209,-0.05644 -0.186267,-0.05644 -0.107244,0 -0.180622,0.0508 -0.06773,0.04516 -0.107244,0.124177 -0.03951,0.07338 -0.05644,0.169333 -0.01129,0.09031 -0.01129,0.180623 v 0.80151 h 0.406399 z"
           style="font-style:normal;font-variant:normal;font-weight:normal;font-stretch:normal;font-size:5.64444px;font-family:'ChunkFive Ex';-inkscape-font-specification:'ChunkFive Ex';stroke-width:0.264583"
           id="path1039" />
        <path
           d="m 82.726573,62.254602 h -0.259645 v -0.716844 h 1.433688 v 0.69991 H 83.629683 L 82.557239,64.8454 q -0.06209,0.135466 -0.146755,0.276577 -0.07902,0.141111 -0.214489,0.254 -0.135466,0.118533 -0.344311,0.191911 -0.2032,0.07338 -0.507999,0.07338 -0.220133,-0.01129 -0.389467,-0.09031 -0.163688,-0.07902 -0.293511,-0.191911 L 81.08404,64.693 q 0.07902,0.07338 0.174978,0.135466 0.1016,0.06209 0.197556,0.06209 0.112888,0 0.19191,-0.09596 0.08467,-0.09596 0.124178,-0.208845 l 0.07902,-0.237066 -1.100665,-2.088443 h -0.231423 v -0.722488 h 1.738488 v 0.716844 h -0.265289 l 0.366889,0.880532 z"
           style="font-style:normal;font-variant:normal;font-weight:normal;font-stretch:normal;font-size:5.64444px;font-family:'ChunkFive Ex';-inkscape-font-specification:'ChunkFive Ex';stroke-width:0.264583"
           id="path1041" />
        <path
           d="m 85.497377,64.433355 q -0.3048,0 -0.592667,-0.09031 -0.282222,-0.09596 -0.502355,-0.282222 -0.220133,-0.186266 -0.349955,-0.468488 -0.129822,-0.282222 -0.129822,-0.654755 0,-0.3556 0.129822,-0.626533 0.135466,-0.276578 0.349955,-0.462844 0.220133,-0.186267 0.496711,-0.282222 0.282222,-0.09596 0.570088,-0.09596 0.333022,0 0.620889,0.107245 0.287866,0.1016 0.49671,0.299155 0.214489,0.191911 0.333022,0.474133 0.118534,0.276578 0.118534,0.632177 0,0.349956 -0.124178,0.620889 -0.118533,0.265288 -0.327378,0.451555 -0.208844,0.186266 -0.491066,0.282222 -0.276577,0.09596 -0.59831,0.09596 z m 0,-0.722488 q 0.09031,0 0.158044,-0.05644 0.07338,-0.05645 0.124178,-0.158045 0.0508,-0.1016 0.07338,-0.237066 0.02822,-0.141111 0.02822,-0.299155 0,-0.158045 -0.02822,-0.293511 -0.02822,-0.141111 -0.07902,-0.242711 -0.0508,-0.1016 -0.129822,-0.158045 -0.07338,-0.06209 -0.174978,-0.06209 -0.08467,0 -0.158044,0.05644 -0.06773,0.05644 -0.118533,0.158044 -0.0508,0.1016 -0.08467,0.237067 -0.02822,0.135466 -0.02822,0.287866 0,0.349956 0.118533,0.5588 0.118533,0.208844 0.299156,0.208844 z"
           style="font-style:normal;font-variant:normal;font-weight:normal;font-stretch:normal;font-size:5.64444px;font-family:'ChunkFive Ex';-inkscape-font-specification:'ChunkFive Ex';stroke-width:0.264583"
           id="path1043" />
        <path
           d="m 87.202175,61.537758 h 1.365954 v 1.36031 q 0,0.366888 0.06209,0.541866 0.06773,0.169333 0.242711,0.169333 0.146755,0 0.248355,-0.118533 0.107245,-0.118533 0.107245,-0.310444 v -0.897466 h -0.372533 v -0.745066 h 1.46191 v 2.071509 h 0.276577 v 0.750711 h -1.066799 l -0.1524,-0.3556 q -0.04516,0.0508 -0.112889,0.129822 -0.06209,0.07338 -0.158044,0.141111 -0.09031,0.06773 -0.220133,0.112889 -0.129822,0.0508 -0.310445,0.0508 -0.321733,0 -0.541866,-0.08467 -0.214488,-0.08467 -0.349955,-0.254 -0.129822,-0.169333 -0.186267,-0.428977 -0.05644,-0.259644 -0.05644,-0.6096 V 62.282821 H 87.20218 Z"
           style="font-style:normal;font-variant:normal;font-weight:normal;font-stretch:normal;font-size:5.64444px;font-family:'ChunkFive Ex';-inkscape-font-specification:'ChunkFive Ex';stroke-width:0.264583"
           id="path1045" />
        <path
           d="M 92.432717,64.359978 H 90.83534 v -0.739422 h 0.248355 v -1.349021 h -0.24271 v -0.733777 h 1.061154 l 0.169334,0.361244 q 0.05644,-0.1016 0.118533,-0.191911 0.06209,-0.09031 0.158044,-0.158044 0.09596,-0.07338 0.237067,-0.112889 0.141111,-0.03951 0.361244,-0.03951 v 1.015999 q -0.383822,0 -0.592666,0.129822 -0.2032,0.124178 -0.2032,0.496711 v 0.581377 h 0.282222 z"
           style="font-style:normal;font-variant:normal;font-weight:normal;font-stretch:normal;font-size:5.64444px;font-family:'ChunkFive Ex';-inkscape-font-specification:'ChunkFive Ex';stroke-width:0.264583"
           id="path1047" />
        <path
           d="M 94.649221,64.359978 V 63.6262 h 0.237066 v -2.760131 h -0.237066 v -0.739421 h 1.365954 v 1.631243 q 0.04516,-0.05645 0.124178,-0.1016 0.08467,-0.0508 0.186267,-0.08467 0.101599,-0.03951 0.214488,-0.05644 0.112889,-0.02258 0.214489,-0.02258 0.327378,0 0.570088,0.124178 0.242711,0.124177 0.400756,0.333022 0.163688,0.2032 0.242711,0.474133 0.08467,0.265288 0.08467,0.54751 -0.0056,0.327378 -0.1016,0.598311 -0.09031,0.265289 -0.259644,0.4572 -0.169333,0.186266 -0.4064,0.293511 -0.237066,0.1016 -0.536221,0.1016 -0.163689,0 -0.276578,-0.02258 -0.112889,-0.01693 -0.197555,-0.0508 -0.08467,-0.03951 -0.1524,-0.08467 -0.06209,-0.04515 -0.118534,-0.09596 l -0.08467,0.191911 z m 2.16182,-1.377244 q 0,-0.124177 -0.02822,-0.248355 -0.02822,-0.129822 -0.08467,-0.225778 -0.0508,-0.09595 -0.129823,-0.158044 -0.07338,-0.06209 -0.163688,-0.06209 -0.158045,0 -0.282222,0.174978 -0.118534,0.174977 -0.118534,0.479777 0,0.158045 0.02822,0.293511 0.02822,0.135467 0.07902,0.237067 0.05644,0.1016 0.129822,0.158044 0.07902,0.05644 0.169333,0.05644 0.180622,0 0.287867,-0.191911 0.112888,-0.191911 0.112888,-0.513644 z"
           style="font-style:normal;font-variant:normal;font-weight:normal;font-stretch:normal;font-size:5.64444px;font-family:'ChunkFive Ex';-inkscape-font-specification:'ChunkFive Ex';stroke-width:0.264583"
           id="path1049" />
        <path
           d="m 99.93277,64.359978 h -1.597376 v -0.739422 h 0.248355 v -1.349021 h -0.242711 v -0.733777 h 1.061155 l 0.169333,0.361244 q 0.05644,-0.1016 0.118533,-0.191911 0.06209,-0.09031 0.158045,-0.158044 0.09595,-0.07338 0.237066,-0.112889 0.14111,-0.03951 0.36124,-0.03951 v 1.015999 q -0.38382,0 -0.592662,0.129822 -0.2032,0.124178 -0.2032,0.496711 v 0.581377 h 0.282222 z"
           style="font-style:normal;font-variant:normal;font-weight:normal;font-stretch:normal;font-size:5.64444px;font-family:'ChunkFive Ex';-inkscape-font-specification:'ChunkFive Ex';stroke-width:0.264583"
           id="path1051" />
        <path
           d="m 102.18419,64.433355 q -0.3048,0 -0.59267,-0.09031 -0.28222,-0.09596 -0.50235,-0.282222 -0.22013,-0.186266 -0.34996,-0.468488 -0.12982,-0.282222 -0.12982,-0.654755 0,-0.3556 0.12982,-0.626533 0.13547,-0.276578 0.34996,-0.462844 0.22013,-0.186267 0.49671,-0.282222 0.28222,-0.09596 0.57009,-0.09596 0.33302,0 0.62089,0.107245 0.28786,0.1016 0.49671,0.299155 0.21449,0.191911 0.33302,0.474133 0.11853,0.276578 0.11853,0.632177 0,0.349956 -0.12418,0.620889 -0.11853,0.265288 -0.32737,0.451555 -0.20885,0.186266 -0.49107,0.282222 -0.27658,0.09596 -0.59831,0.09596 z m 0,-0.722488 q 0.0903,0 0.15804,-0.05644 0.0734,-0.05645 0.12418,-0.158045 0.0508,-0.1016 0.0734,-0.237066 0.0282,-0.141111 0.0282,-0.299155 0,-0.158045 -0.0282,-0.293511 -0.0282,-0.141111 -0.079,-0.242711 -0.0508,-0.1016 -0.12982,-0.158045 -0.0734,-0.06209 -0.17498,-0.06209 -0.0847,0 -0.15805,0.05644 -0.0677,0.05644 -0.11853,0.158044 -0.0508,0.1016 -0.0847,0.237067 -0.0282,0.135466 -0.0282,0.287866 0,0.349956 0.11853,0.5588 0.11854,0.208844 0.29916,0.208844 z"
           style="font-style:normal;font-variant:normal;font-weight:normal;font-stretch:normal;font-size:5.64444px;font-family:'ChunkFive Ex';-inkscape-font-specification:'ChunkFive Ex';stroke-width:0.264583"
           id="path1053" />
        <path
           d="m 105.40734,63.496378 q 0.006,-0.08467 0.0169,-0.225777 0.0169,-0.141111 0.0395,-0.310444 0.0282,-0.174978 0.0677,-0.372533 0.0452,-0.2032 0.10724,-0.417689 l 0.18063,-0.632177 h 1.04422 l 0.21449,0.733777 q 0.0508,0.163689 0.0903,0.349955 0.0395,0.186267 0.0734,0.3556 0.0339,0.169333 0.0508,0.310444 0.0226,0.135467 0.0282,0.208844 h 0.0113 q 0.006,-0.06773 0.0169,-0.169333 0.0169,-0.107244 0.0339,-0.231422 0.0169,-0.124178 0.0395,-0.248355 0.0282,-0.129822 0.0621,-0.242711 l 0.096,-0.333022 H 107.349 v -0.733777 h 1.37724 v 0.733777 h -0.23142 l -0.6604,2.088443 h -1.19098 l -0.38946,-1.275644 -0.4064,1.275644 h -1.16276 L 104.047,62.271535 h -0.24271 v -0.733777 h 1.51836 v 0.733777 h -0.19192 l 0.12418,0.412044 q 0.0282,0.1016 0.0508,0.220133 0.0282,0.112889 0.0452,0.225778 0.0169,0.112889 0.0282,0.208844 0.0113,0.09596 0.0169,0.158044 z"
           style="font-style:normal;font-variant:normal;font-weight:normal;font-stretch:normal;font-size:5.64444px;font-family:'ChunkFive Ex';-inkscape-font-specification:'ChunkFive Ex';stroke-width:0.264583"
           id="path1055" />
        <path
           d="m 108.8217,64.359978 v -1.016 h 0.75636 q 0,0.112889 0.0677,0.186267 0.0734,0.07338 0.16934,0.118533 0.096,0.03951 0.19755,0.05644 0.1016,0.01693 0.16369,0.01693 0.0847,0 0.16369,-0.03387 0.0847,-0.03951 0.0847,-0.158044 0,-0.07902 -0.11854,-0.124178 -0.11289,-0.0508 -0.29351,-0.09596 -0.17498,-0.04516 -0.37818,-0.107245 -0.2032,-0.06209 -0.38382,-0.169333 -0.17498,-0.112889 -0.29351,-0.287866 -0.11289,-0.180622 -0.11289,-0.4572 0,-0.214489 0.096,-0.366888 0.1016,-0.158045 0.24835,-0.254 0.1524,-0.1016 0.32174,-0.146756 0.17497,-0.0508 0.32737,-0.0508 0.28787,0 0.51929,0.129822 0.23142,0.129823 0.32174,0.310445 l 0.0451,-0.372533 h 0.69427 v 1.015999 h -0.73378 q 0,-0.09031 -0.0508,-0.163689 -0.0508,-0.07902 -0.13547,-0.135466 -0.079,-0.06209 -0.18062,-0.09596 -0.1016,-0.03387 -0.20884,-0.03387 -0.0903,0 -0.15805,0.0508 -0.0621,0.04516 -0.0621,0.1524 0,0.09596 0.11854,0.1524 0.11853,0.05645 0.29351,0.112889 0.18062,0.0508 0.38946,0.118533 0.20885,0.06209 0.38383,0.169333 0.18062,0.107245 0.29915,0.276578 0.11853,0.163689 0.11853,0.423333 0,0.197555 -0.0903,0.3556 -0.0847,0.158044 -0.23142,0.270933 -0.14111,0.107244 -0.33302,0.163689 -0.19191,0.05644 -0.39511,0.05644 -0.3048,0 -0.53622,-0.124178 -0.22578,-0.124177 -0.32738,-0.287866 l -0.0508,0.344311 z"
           style="font-style:normal;font-variant:normal;font-weight:normal;font-stretch:normal;font-size:5.64444px;font-family:'ChunkFive Ex';-inkscape-font-specification:'ChunkFive Ex';stroke-width:0.264583"
           id="path1057" />
        <path
           d="m 114.59384,63.970511 q -0.31608,0.270933 -0.66604,0.383822 -0.34995,0.107245 -0.79022,0.107245 -0.26529,0 -0.53058,-0.09031 -0.26529,-0.08467 -0.47978,-0.265289 -0.20884,-0.186267 -0.34431,-0.474133 -0.13546,-0.293511 -0.13546,-0.699911 0,-0.34431 0.11853,-0.615244 0.11853,-0.276577 0.32173,-0.468488 0.2032,-0.191911 0.47978,-0.287867 0.27658,-0.1016 0.59831,-0.1016 0.34996,0 0.61525,0.1016 0.27093,0.1016 0.45155,0.282222 0.18062,0.180622 0.27093,0.428978 0.0903,0.242711 0.0903,0.530577 0,0.112889 -0.0169,0.225778 -0.0169,0.107244 -0.0508,0.2032 h -1.778 q 0.0113,0.05644 0.0339,0.135466 0.0282,0.07902 0.0903,0.1524 0.0621,0.07338 0.16933,0.124178 0.10725,0.0508 0.28787,0.0508 0.0734,0 0.15804,-0.0056 0.0903,-0.0056 0.19192,-0.03387 0.1016,-0.02822 0.21448,-0.07902 0.11289,-0.05644 0.22578,-0.1524 z m -1.39417,-1.749776 q -0.12982,0 -0.21449,0.0508 -0.079,0.0508 -0.12982,0.124178 -0.0452,0.06773 -0.0677,0.146755 -0.0169,0.07902 -0.0226,0.129822 h 0.85231 q 0,-0.07902 -0.0169,-0.158044 -0.0169,-0.08467 -0.0621,-0.146756 -0.0395,-0.06773 -0.12417,-0.107244 -0.079,-0.03951 -0.21449,-0.03951 z"
           style="font-style:normal;font-variant:normal;font-weight:normal;font-stretch:normal;font-size:5.64444px;font-family:'ChunkFive Ex';-inkscape-font-specification:'ChunkFive Ex';stroke-width:0.264583"
           id="path1059" />
        <path
           d="m 116.43835,64.359978 h -1.59738 v -0.739422 h 0.24836 v -1.349021 h -0.24271 v -0.733777 h 1.06115 l 0.16933,0.361244 q 0.0564,-0.1016 0.11854,-0.191911 0.0621,-0.09031 0.15804,-0.158044 0.096,-0.07338 0.23707,-0.112889 0.14111,-0.03951 0.36124,-0.03951 v 1.015999 q -0.38382,0 -0.59266,0.129822 -0.2032,0.124178 -0.2032,0.496711 v 0.581377 h 0.28222 z"
           style="font-style:normal;font-variant:normal;font-weight:normal;font-stretch:normal;font-size:5.64444px;font-family:'ChunkFive Ex';-inkscape-font-specification:'ChunkFive Ex';stroke-width:0.264583"
           id="path1061" />
      </g>
      <g
         id="g1380">
        <g
           id="g1350">
          <g
             id="g1178">
            <g
               aria-label="JS"
               id="text835"
               style="font-style:normal;font-weight:normal;font-size:25.4px;line-height:1.25;font-family:sans-serif;letter-spacing:0px;word-spacing:0px;fill:#000000;fill-opacity:1;stroke:none;stroke-width:0.264583">
              <path
                 d="m 89.581654,52.445484 q 0.4826,0.2286 1.143,0.2286 0.9398,0 1.524,-0.8128 0.5842,-0.8128 0.5842,-2.8448 v -12.5476 h -2.1844 v -3.3274 h 9.550396 v 3.3274 h -2.108196 v 12.5476 q 0,1.6764 -0.381,2.9972 -0.381,1.3208 -1.2446,2.2098 -0.8382,0.9144 -2.2098,1.3716 -1.3716,0.4826 -3.3274,0.4826 -0.3556,0 -0.7112,-0.0762 -0.3302,-0.0762 -0.6096,-0.2032 z"
                 style="font-style:normal;font-variant:normal;font-weight:normal;font-stretch:normal;font-size:25.4px;font-family:'ChunkFive Ex';-inkscape-font-specification:'ChunkFive Ex';stroke-width:0.264583"
                 id="path1170" />
              <path
                 d="m 101.46608,50.896084 v -6.4008 h 4.7244 q 0,0.7874 0.3556,1.2954 0.3556,0.4826 0.8382,0.762 0.508,0.2794 1.0414,0.381 0.5588,0.1016 0.9652,0.1016 0.3302,0 0.7112,-0.0508 0.381,-0.0508 0.6858,-0.1778 0.3302,-0.1524 0.5334,-0.381 0.2286,-0.254 0.2286,-0.6604 0,-0.4826 -0.7366,-0.7874 -0.7112,-0.3302 -1.8034,-0.635 -1.0668,-0.3048 -2.3368,-0.6858 -1.27,-0.4064 -2.3622,-1.0922 -1.0668,-0.6858 -1.8034,-1.7272 -0.7112,-1.0668 -0.7112,-2.6924 0,-1.397 0.5842,-2.4384 0.6096,-1.0414 1.4986,-1.7018 0.9144,-0.6604 1.9558,-0.9906 1.0668,-0.3302 2.0066,-0.3302 0.7874,0 1.5748,0.1524 0.7874,0.127 1.4986,0.4318 0.7112,0.3048 1.27,0.8128 0.5842,0.4826 0.9652,1.1938 l 0.254,-2.1336 h 4.3688 v 6.3754 h -4.5974 q 0,-0.7112 -0.254,-1.2446 -0.254,-0.5588 -0.7112,-0.9398 -0.4318,-0.381 -1.0414,-0.5588 -0.5842,-0.2032 -1.2446,-0.2032 -0.2794,0 -0.5842,0.1016 -0.3048,0.0762 -0.5842,0.254 -0.254,0.1524 -0.4318,0.4064 -0.1524,0.254 -0.1524,0.5842 0,0.6604 0.7366,1.0922 0.762,0.4318 1.8796,0.8128 1.1176,0.381 2.413,0.8382 1.2954,0.4318 2.413,1.0922 1.1176,0.6604 1.8542,1.651 0.762,0.9906 0.762,2.4892 0,1.4986 -0.635,2.5146 -0.6096,1.016 -1.6002,1.6764 -0.9652,0.635 -2.159,0.9144 -1.1938,0.2794 -2.3368,0.2794 -0.9652,0 -1.778,-0.2032 -0.8128,-0.2032 -1.4732,-0.5334 -0.6604,-0.3302 -1.1938,-0.7366 -0.508,-0.4318 -0.8636,-0.8636 l -0.2794,1.9558 z"
                 style="font-style:normal;font-variant:normal;font-weight:normal;font-stretch:normal;font-size:25.4px;font-family:'ChunkFive Ex';-inkscape-font-specification:'ChunkFive Ex';stroke-width:0.264583"
                 id="path1172" />
            </g>
          </g>
          <g
             transform="translate(8.6688016,-5.0771003)"
             style="font-style:normal;font-weight:normal;font-size:25.4px;line-height:1.25;font-family:sans-serif;letter-spacing:0.978958px;word-spacing:0px;fill:#000000;fill-opacity:1;stroke:none;stroke-width:0.264583"
             id="text857"
             aria-label="Libre">
            <path
               sodipodi:nodetypes="ccccccc"
               id="path870"
               style="font-style:normal;font-variant:normal;font-weight:bold;font-stretch:normal;font-size:25.4px;font-family:Arial;-inkscape-font-specification:'Arial Bold';stroke-width:0.264583"
               d="m 17.476477,55.609588 -0.09449,-18.245619 h 3.671094 l 0.09449,15.182241 h 7.61622 v 3.063378 z" />
            <path
               sodipodi:nodetypes="ccccscscsccccscscscscs"
               id="path874"
               style="font-style:normal;font-variant:normal;font-weight:bold;font-stretch:normal;font-size:25.4px;font-family:Arial;-inkscape-font-specification:'Arial Bold';stroke-width:0.264583"
               d="M 41.110147,55.396976 V 35.912202 h 3.485058 v 7.851376 c 1.07487,-1.223698 2.307358,-2.087995 3.779103,-2.087995 1.604037,0 2.931087,0.58291 3.981152,1.748731 1.050065,1.157552 1.828529,2.95793 1.828529,5.132474 0,2.248959 -0.537435,3.981153 -1.612305,5.196582 -1.066601,1.21543 -2.364713,1.823145 -3.894336,1.823145 -0.752409,0 -1.496549,-0.186035 -2.232421,-0.558106 -0.727605,-0.380339 -1.568602,-0.820326 -2.097769,-1.556198 v 1.934765 z m 3.460254,-6.870898 c 0,1.364258 0.427586,2.254864 0.857533,2.908054 0.603581,0.926041 1.405599,1.389062 2.406055,1.389062 0.768945,0 1.422135,-0.326595 1.95957,-0.979785 0.545703,-0.661458 0.818555,-1.699121 0.818555,-3.112988 0,-1.504817 -0.526283,-2.722285 -1.071986,-3.383744 -0.545703,-0.669727 -1.244368,-1.00459 -2.095996,-1.00459 -0.835091,0 -1.576869,0.728195 -2.13084,1.381385 -0.420336,0.678331 -0.742891,1.479689 -0.742891,2.802606 z" />
            <path
               sodipodi:nodetypes="ccccccccccsc"
               id="path876"
               style="font-style:normal;font-variant:normal;font-weight:bold;font-stretch:normal;font-size:25.4px;font-family:Arial;-inkscape-font-specification:'Arial Bold';stroke-width:0.264583"
               d="M 60.960155,55.396976 H 57.475097 V 41.327995 h 3.237011 v 2.770446 c 0.553971,-0.8847 1.050065,-1.46761 1.488282,-1.74873 1.255625,-1.136878 3.715095,-1.138883 4.091002,-0.945534 l -0.181311,3.186047 c -1.151105,-0.08567 -2.894749,-0.139987 -4.05852,0.872468 -0.338997,0.264583 -0.607715,0.748275 -0.806152,1.451074 -0.190169,0.7028 -0.285254,2.174545 -0.285254,4.415235 z" />
            <path
               sodipodi:nodetypes="ccccscsccccccccsscc"
               id="path878"
               style="font-style:normal;font-variant:normal;font-weight:bold;font-stretch:normal;font-size:25.4px;font-family:Arial;-inkscape-font-specification:'Arial Bold';stroke-width:0.264583"
               d="m 79.702812,51.842819 v 2.685402 c -2.368491,1.165285 -4.289572,1.027143 -5.210165,1.119165 -2.2903,0 -3.985287,-0.748275 -5.084961,-2.244824 -0.868164,-1.198893 -1.302246,-3.208073 -1.302246,-5.035352 0,-2.182812 0.570508,-3.890202 1.711523,-5.122168 1.141015,-1.240234 2.583821,-1.860352 4.328418,-1.860352 1.95957,0 3.505729,0.649056 4.638476,1.947168 1.132747,1.289844 1.674316,3.270085 1.624707,5.940723 h -8.731249 c 0.02481,1.033529 0.32955,2.194034 0.866983,2.77281 0.537434,0.570508 1.656008,0.784891 2.458026,0.784891 2.03392,-0.105115 4.582205,-0.738057 4.700488,-0.987463 z m -2.778125,-4.939676 c -0.02481,-1.008724 -0.261632,-1.5373 -0.757724,-2.058199 -0.496094,-0.529166 -1.099675,-0.79375 -1.810742,-0.79375 -0.760677,0 -1.389063,0.276986 -1.885156,0.830957 -0.496094,0.553972 -0.763631,1.070146 -0.755363,2.020992 z" />
          </g>
        </g>
        <g
           id="g1339">
          <path
             style="fill:#000000;fill-opacity:1;stroke:none;stroke-width:0.264583px;stroke-linecap:butt;stroke-linejoin:miter;stroke-opacity:1"
             d="m 45.640624,23.34003 c 0,0 1.705979,1.830695 1.299292,7.063428 -0.354351,4.559339 -2.479933,5.326328 -3.23642,5.457032 -0.756487,0.130704 -3.000184,-0.0945 -3.000184,-2.456845 0,-2.362349 0.73497,-3.28579 1.748138,-4.015995 1.013168,-0.730206 2.291481,-0.566966 2.905693,-2.551341 0.614209,-1.984375 0.283481,-3.496279 0.283481,-3.496279 z"
             id="path910"
             sodipodi:nodetypes="cszzzsc" />
          <path
             style="fill:#000000;fill-opacity:1;stroke:none;stroke-width:0.2716px;stroke-linecap:butt;stroke-linejoin:miter;stroke-opacity:1"
             d="m 46.230932,37.546607 c -3.042093,-1.413212 -6.25192,-0.0084 -6.25192,-0.0084 l -0.129449,-0.583665 c 0,0 0.482412,-0.165406 1.285058,-0.326204 1.280781,-0.256586 3.285428,-0.454337 5.196876,0.334558 z"
             id="path952"
             sodipodi:nodetypes="cscccc" />
          <path
             sodipodi:nodetypes="cccccc"
             id="path952-2"
             d="M 45.64781,40.405941 40.474498,40.295992 C 40.045312,38.5209 40.01688,37.679491 40.01688,37.679491 c 0,0 0.57182,-0.165885 1.343475,-0.364121 1.494424,-0.274566 2.991012,-0.395468 4.820309,0.364121 z"
             style="fill:#000000;fill-opacity:1;stroke:none;stroke-width:0.295686px;stroke-linecap:butt;stroke-linejoin:miter;stroke-opacity:1" />
          <path
             style="fill:#000000;fill-opacity:1;stroke:none;stroke-width:0.264583px;stroke-linecap:butt;stroke-linejoin:miter;stroke-opacity:1"
             d="m 41.274488,40.207351 c 0,0 0.467044,13.959375 0.940728,16.772559 0.05469,0.324782 0.434043,0.533142 0.831882,0.533141 0.437781,-0.02363 0.689353,-0.261235 0.739169,-0.567936 0.746199,-4.594142 1.027105,-16.737764 1.027105,-16.737764 z"
             id="path978"
             sodipodi:nodetypes="cscscc" />
          <path
             d="m 40.299232,40.601334 a 0.49277818,0.36750007 0 0 1 -0.491821,0.367499 0.49277818,0.36750007 0 0 1 -0.493732,-0.366072 0.49277818,0.36750007 0 0 1 0.489904,-0.368921 0.49277818,0.36750007 0 0 1 0.495634,0.364639"
             style="fill:#000000;fill-opacity:1;stroke:none;stroke-width:0.309999;stroke-linecap:round;stroke-linejoin:round;stroke-opacity:1;paint-order:stroke fill markers"
             id="path980"
             sodipodi:type="arc"
             sodipodi:cx="39.806454"
             sodipodi:cy="40.601334"
             sodipodi:rx="0.49277818"
             sodipodi:ry="0.36750007"
             sodipodi:start="0"
             sodipodi:end="6.2754186"
             sodipodi:open="true"
             sodipodi:arc-type="arc" />
          <path
             d="m 46.722057,40.668152 a 0.49277818,0.3675001 0 0 1 -0.491822,0.367499 0.49277818,0.3675001 0 0 1 -0.493731,-0.366072 0.49277818,0.3675001 0 0 1 0.489904,-0.368921 0.49277818,0.3675001 0 0 1 0.495634,0.36464"
             sodipodi:arc-type="arc"
             sodipodi:open="true"
             sodipodi:end="6.2754186"
             sodipodi:start="0"
             sodipodi:ry="0.3675001"
             sodipodi:rx="0.49277818"
             sodipodi:cy="40.668152"
             sodipodi:cx="46.229279"
             sodipodi:type="arc"
             id="path980-8"
             style="fill:#000000;fill-opacity:1;stroke:none;stroke-width:0.309999;stroke-linecap:round;stroke-linejoin:round;stroke-opacity:1;paint-order:stroke fill markers" />
          <path
             style="fill:none;stroke:#000000;stroke-width:0.264583px;stroke-linecap:butt;stroke-linejoin:miter;stroke-opacity:1"
             d="m 39.773047,40.357697 c 0,0 3.103782,-1.336356 6.406116,0.150342 z"
             id="path997"
             sodipodi:nodetypes="ccc" />
        </g>
      </g>
    </g>
  </g>
</svg>
